<?xml version="1.0" encoding="UTF-8"?>
<svg version="1.1" xmlns="http://www.w3.org/2000/svg" width="225" height="225">
<path d="M0 0 C74.25 0 148.5 0 225 0 C225 74.25 225 148.5 225 225 C150.75 225 76.5 225 0 225 C0 150.75 0 76.5 0 0 Z " fill="#233B88" transform="translate(0,0)"/>
<path d="M0 0 C74.25 0 148.5 0 225 0 C225 74.25 225 148.5 225 225 C150.75 225 76.5 225 0 225 C0 150.75 0 76.5 0 0 Z M43.1875 47.8125 C25.34169552 68.77634467 16.97319481 94.58014236 19 122 C21.8374504 144.13211314 31.54379643 163.0544939 47 179 C47.80630859 179.91652344 47.80630859 179.91652344 48.62890625 180.8515625 C61.7028808 195.20344434 83.96389828 204.95056226 103.16357422 206.20703125 C133.2480485 207.40749481 157.53099742 200.21394297 180.3046875 179.94921875 C195.36418357 165.69741191 206.97831676 143.8322479 208.17700195 122.91064453 C208.73627727 92.99498554 203.48403455 69.01977577 183 46 C180.471193 43.471193 177.79934717 41.2228673 175 39 C174.12730469 38.27941406 173.25460938 37.55882813 172.35546875 36.81640625 C133.28871126 5.80357199 76.90142374 12.09809911 43.1875 47.8125 Z " fill="#FEFEFE" transform="translate(0,0)"/>
<path d="M0 0 C12.93227359 -1.01709696 21.91528541 1.27239712 32.83520508 8.20507812 C33.71571533 8.74358398 33.71571533 8.74358398 34.61401367 9.29296875 C36.06018676 10.2043833 37.45383958 11.19814095 38.83520508 12.20507812 C38.83520508 12.86507812 38.83520508 13.52507812 38.83520508 14.20507812 C39.45395508 14.47320312 40.07270508 14.74132812 40.71020508 15.01757812 C42.83520508 16.20507812 42.83520508 16.20507812 44.83520508 19.20507812 C43.84520508 20.69007812 43.84520508 20.69007812 42.83520508 22.20507812 C41.51520508 21.54507813 40.19520508 20.88507813 38.83520508 20.20507812 C38.83520508 20.86507812 38.83520508 21.52507812 38.83520508 22.20507812 C37.84520508 22.20507812 36.85520508 22.20507812 35.83520508 22.20507812 C35.83520508 22.86507812 35.83520508 23.52507812 35.83520508 24.20507812 C36.61895508 24.30820313 37.40270508 24.41132812 38.21020508 24.51757812 C40.83520508 25.20507812 40.83520508 25.20507812 42.83520508 28.20507812 C43.26833008 27.56570312 43.70145508 26.92632812 44.14770508 26.26757812 C45.83520508 24.20507812 45.83520508 24.20507812 48.83520508 23.20507812 C49.79865951 25.07745184 50.7557361 26.95310803 51.71020508 28.83007812 C52.24387695 29.87421875 52.77754883 30.91835937 53.32739258 31.99414062 C60.0383159 46.28527785 58.70515191 62.6386424 53.52270508 77.20507812 C51.62012857 81.87452843 49.73998989 84.91683828 45.83520508 88.20507812 C45.34020508 89.07132812 44.84520508 89.93757813 44.33520508 90.83007812 C42.52353566 93.69855471 40.78751047 94.58833946 37.83520508 96.20507812 C36.50489258 97.28789062 36.50489258 97.28789062 35.14770508 98.39257812 C32.83520508 100.20507812 32.83520508 100.20507812 30.83520508 100.20507812 C30.83520508 100.86507812 30.83520508 101.52507812 30.83520508 102.20507812 C28.98170191 102.83204307 27.12736649 103.45654779 25.27270508 104.08007812 C24.24016602 104.428125 23.20762695 104.77617187 22.14379883 105.13476562 C21.05196289 105.48796875 19.96012695 105.84117187 18.83520508 106.20507812 C17.75239258 106.57632813 16.66958008 106.94757813 15.55395508 107.33007812 C10.91952544 108.42053216 6.63578886 108.42375887 1.89770508 108.33007812 C0.58576172 108.31654297 0.58576172 108.31654297 -0.75268555 108.30273438 C-2.89017556 108.27937383 -5.02752278 108.24351059 -7.16479492 108.20507812 C-7.16479492 107.54507813 -7.16479492 106.88507813 -7.16479492 106.20507812 C-8.25791992 106.22570312 -9.35104492 106.24632812 -10.47729492 106.26757812 C-14.16479492 106.20507812 -14.16479492 106.20507812 -17.16479492 105.20507812 C-17.16479492 104.54507813 -17.16479492 103.88507813 -17.16479492 103.20507812 C-17.98979492 102.99882812 -18.81479492 102.79257813 -19.66479492 102.58007812 C-23.47107651 101.08475322 -26.14723469 99.15581598 -29.33276367 96.64257812 C-30.8878587 95.42237563 -32.52010809 94.30153602 -34.16479492 93.20507812 C-34.16479492 92.54507813 -34.16479492 91.88507813 -34.16479492 91.20507812 C-34.82479492 91.20507812 -35.48479492 91.20507812 -36.16479492 91.20507812 C-35.66979492 90.21507812 -35.66979492 90.21507812 -35.16479492 89.20507812 C-34.83479492 89.20507812 -34.50479492 89.20507812 -34.16479492 89.20507812 C-34.82479492 88.54507813 -35.48479492 87.88507813 -36.16479492 87.20507812 C-34.51479492 87.53507812 -32.86479492 87.86507812 -31.16479492 88.20507812 C-31.65979492 87.71007812 -31.65979492 87.71007812 -32.16479492 87.20507812 C-31.66979492 85.72007812 -31.66979492 85.72007812 -31.16479492 84.20507812 C-32.14329687 83.18403261 -33.14459919 82.18446603 -34.16479492 81.20507812 C-35.38840172 81.13054253 -35.38840172 81.13054253 -37.16479492 82.20507812 C-37.82034611 84.73241048 -37.82034611 84.73241048 -38.16479492 87.20507812 C-45.39991502 81.30979509 -49.236037 70.06268921 -51.16479492 61.20507812 C-51.61248695 54.90630004 -52.04180898 48.30918889 -50.16479492 42.20507812 C-49.50479492 42.20507812 -48.84479492 42.20507812 -48.16479492 42.20507812 C-48.07842773 41.57601562 -47.99206055 40.94695312 -47.90307617 40.29882812 C-46.97941523 34.67212295 -45.56510072 30.63807807 -42.32104492 25.95117188 C-41.01481166 24.12647529 -41.01481166 24.12647529 -40.16479492 21.45507812 C-38.81401867 18.41583155 -36.82009175 17.14797824 -34.16479492 15.20507812 C-33.72135742 14.74230469 -33.27791992 14.27953125 -32.82104492 13.80273438 C-23.74628946 5.04901979 -12.222149 1.15784427 0 0 Z " fill="#F4F3F5" transform="translate(110.164794921875,57.794921875)"/>
<path d="M0 0 C13.84400526 8.11545136 24.25304041 20.09860357 32 34 C32.48855469 34.85335937 32.97710937 35.70671875 33.48046875 36.5859375 C44.69081446 58.45473498 44.44045368 84.19660118 37.09008789 107.12060547 C29.35954056 130.00037604 13.25594916 147.55319578 -8.01953125 158.5625 C-10.65283683 159.79996948 -13.29378564 160.93252561 -16 162 C-16.82628906 162.33 -17.65257812 162.66 -18.50390625 163 C-26.06303419 165.78952991 -26.06303419 165.78952991 -30 164 C-31.81424479 161.03427881 -32.49917999 158.14730864 -33.125 154.75 C-33.29257813 153.85796875 -33.46015625 152.9659375 -33.6328125 152.046875 C-33.75398437 151.37140625 -33.87515625 150.6959375 -34 150 C-27.41611625 155.54821664 -27.41611625 155.54821664 -24.8125 158.375 C-22.90933583 160.44503001 -22.90933583 160.44503001 -19 160 C-19.79971573 154.54661933 -21.1953061 149.29795792 -22.71484375 144.00976562 C-23.94873393 139.38045823 -24.15548446 135.76181229 -23 131 C-22.34 130.67 -21.68 130.34 -21 130 C-20.690625 131.093125 -20.38125 132.18625 -20.0625 133.3125 C-19.41662103 135.55407994 -18.7376883 137.7869351 -18 140 C-14.57767028 141.14077657 -11.91326783 141.09815117 -8.3125 141.0625 C-7.13300781 141.05347656 -5.95351562 141.04445312 -4.73828125 141.03515625 C-3.83464844 141.02355469 -2.93101562 141.01195312 -2 141 C-1.505 143.475 -1.505 143.475 -1 146 C-4.66305234 146.74926071 -7.42355152 147.2380014 -11 146 C-9.87548273 148.9719385 -8.77706209 151.33440687 -7 154 C-6.67 153.34 -6.34 152.68 -6 152 C-4.00319741 151.16178177 -1.97355001 150.53424909 0.08984375 149.87890625 C2.35151853 149.04040098 2.35151853 149.04040098 4 146 C4.53586016 141.86622159 4.40166788 139.69919964 2.3125 136.0625 C-2.85163771 132.8470935 -8.07248658 133.60946105 -14 134 C-14.495 132.02 -14.495 132.02 -15 130 C-11.33694766 129.25073929 -8.57644848 128.7619986 -5 130 C-5.69941596 126.85262818 -6.76078698 123.97411124 -8 121 C-8.66 121 -9.32 121 -10 121 C-10 121.99 -10 122.98 -10 124 C-10.9075 124.28875 -11.815 124.5775 -12.75 124.875 C-15.32202908 125.76531776 -17.61346766 126.71494413 -20 128 C-18.86724418 124.60173253 -18.21980905 124.20511973 -15.375 122.25 C-9.34244324 117.87450102 -3.56654313 113.21840255 -1 106 C-1.20238281 105.39929688 -1.40476563 104.79859375 -1.61328125 104.1796875 C-2.19265498 100.9141265 -0.75790951 99.18484152 0.8125 96.3125 C4.68856843 88.41647197 5.39638812 80.6899297 6 72 C6.33 72 6.66 72 7 72 C7.46216167 61.96184861 2.74832204 52.86574965 -2.4140625 44.55859375 C-3.74526428 42.41096527 -4.91660042 40.27942982 -6 38 C-6.66 38 -7.32 38 -8 38 C-8 37.34 -8 36.68 -8 36 C-8.66 36 -9.32 36 -10 36 C-10 35.34 -10 34.68 -10 34 C-10.515625 33.773125 -11.03125 33.54625 -11.5625 33.3125 C-14.92403127 31.5024447 -17.92911144 29.26003596 -21 27 C-20.34 26.34 -19.68 25.68 -19 25 C-18.34 25.33 -17.68 25.66 -17 26 C-16.78085938 25.40574219 -16.56171875 24.81148437 -16.3359375 24.19921875 C-13.76087442 17.46846443 -10.56781905 11.25557606 -7 5 C-5.68 5.66 -4.36 6.32 -3 7 C-3 7.66 -3 8.32 -3 9 C-2.34 9 -1.68 9 -1 9 C-0.67 6.03 -0.34 3.06 0 0 Z " fill="#273D88" transform="translate(163,35)"/>
<path d="M0 0 C10.76016714 1.57126285 19.97660888 9.12076448 28 16 C28.58910156 16.44472656 29.17820313 16.88945313 29.78515625 17.34765625 C46.14178316 29.99214088 57.14765012 52.86556794 60 73 C61.03754765 88.18633752 61.25028755 103.56598472 56 118 C55.61457031 119.06734375 55.22914063 120.1346875 54.83203125 121.234375 C45.00688718 146.29008221 27.33799245 163.97867283 3.08886719 175.09521484 C-18.51853394 184.45438134 -45.27140017 185.76233996 -67.35791016 177.07226562 C-93.40316375 166.27790357 -112.1673346 147.72888111 -123.13671875 121.828125 C-124 119 -124 119 -123 116 C-119.52148684 119.47851316 -117.43531223 123.01522771 -115.34985352 127.48217773 C-109.77207371 139.38507323 -100.53652584 154.56281014 -88 160 C-88.495 159.38125 -88.99 158.7625 -89.5 158.125 C-91 156 -91 156 -91 154 C-90.39623535 153.74331543 -89.7924707 153.48663086 -89.17041016 153.22216797 C-86.76675595 151.8686592 -85.80226396 150.71577261 -84.2734375 148.4453125 C-83.7990625 147.74792969 -83.3246875 147.05054688 -82.8359375 146.33203125 C-82.35382813 145.60371094 -81.87171875 144.87539062 -81.375 144.125 C-80.88515625 143.40441406 -80.3953125 142.68382812 -79.890625 141.94140625 C-77.70632649 138.70076666 -75.69485558 135.52760766 -74 132 C-73.01 132 -72.02 132 -71 132 C-71.56847656 131.48953125 -72.13695312 130.9790625 -72.72265625 130.453125 C-81.43992587 122.2452117 -89.42995462 111.3107412 -90.1875 98.9375 C-90.0946875 97.9784375 -90.0946875 97.9784375 -90 97 C-89.01 97 -88.02 97 -87 97 C-86.84144531 97.60585937 -86.68289062 98.21171875 -86.51953125 98.8359375 C-84.56652728 105.84948767 -82.25948457 113.74051543 -77 119 C-76.814375 118.0409375 -76.814375 118.0409375 -76.625 117.0625 C-76.41875 116.381875 -76.2125 115.70125 -76 115 C-75.34 114.67 -74.68 114.34 -74 114 C-73.67 113.34 -73.34 112.68 -73 112 C-72.773125 112.804375 -72.54625 113.60875 -72.3125 114.4375 C-71.879375 115.283125 -71.44625 116.12875 -71 117 C-68.45224694 117.89386164 -68.45224694 117.89386164 -66 118 C-67.98 118.495 -67.98 118.495 -70 119 C-70 119.66 -70 120.32 -70 121 C-69.34 121 -68.68 121 -68 121 C-68.33 121.66 -68.66 122.32 -69 123 C-69.33 123 -69.66 123 -70 123 C-70.33 123.66 -70.66 124.32 -71 125 C-71.33 125 -71.66 125 -72 125 C-72 125.66 -72 126.32 -72 127 C-71.4328125 127.268125 -70.865625 127.53625 -70.28125 127.8125 C-67.08281212 129.47744027 -64.19032049 131.52717775 -61.21875 133.5625 C-59.19554147 134.87331116 -57.17712674 135.97081281 -55 137 C-55 137.66 -55 138.32 -55 139 C-51.7 139.33 -48.4 139.66 -45 140 C-45 140.66 -45 141.32 -45 142 C-34.78284668 141.78422063 -25.44353948 141.4534616 -15.76171875 137.9375 C-12.85053241 136.94926136 -10.0393275 136.43098292 -7 136 C-7 135.34 -7 134.68 -7 134 C-5.390625 132.52734375 -5.390625 132.52734375 -3.25 130.9375 C-2.55390625 130.41027344 -1.8578125 129.88304687 -1.140625 129.33984375 C0.95097666 128.03068432 2.59000935 127.43966046 5 127 C5.061875 126.46375 5.12375 125.9275 5.1875 125.375 C6.38995473 121.86013232 8.4542686 119.66413752 11 117 C13.3125 116.125 13.3125 116.125 15 116 C12.59947826 124.53518842 4.51281835 130.51970163 -2 136 C-2.33 136.33 -2.66 136.66 -3 137 C-2.01 136.34 -1.02 135.68 0 135 C2.6875 134.875 2.6875 134.875 5 135 C5 134.01 5 133.02 5 132 C5.66 132 6.32 132 7 132 C9.1875 134.75 9.1875 134.75 11 138 C10.67 139.32 10.34 140.64 10 142 C6.7 141.67 3.4 141.34 0 141 C0.33 141.99 0.66 142.98 1 144 C2.32064453 143.91298828 2.32064453 143.91298828 3.66796875 143.82421875 C13.02868031 143.4605951 13.02868031 143.4605951 15.94140625 145.078125 C17.25 146.4375 17.25 146.4375 19 149 C19.33 149.33 19.66 149.66 20 150 C20.49995165 154.33291429 20.50704714 156.31399505 17.875 159.875 C14.76878461 162.17089833 12.81136138 162.73409107 9 163 C8.67 163.99 8.34 164.98 8 166 C7.13342884 164.90554162 6.28207276 163.79902219 5.4375 162.6875 C4.96183594 162.07261719 4.48617187 161.45773438 3.99609375 160.82421875 C3.66738281 160.22222656 3.33867187 159.62023437 3 159 C3.33 158.01 3.66 157.02 4 156 C7.3 156.33 10.6 156.66 14 157 C13.67 155.68 13.34 154.36 13 153 C11.67935547 153.08701172 11.67935547 153.08701172 10.33203125 153.17578125 C0.8180388 153.5453592 0.8180388 153.5453592 -3.1875 150.875 C-5.03054257 147.95155317 -6.14491851 145.34259129 -7 142 C-8.36104323 148.07608584 -7.39468271 152.26605809 -5.5 158.125 C-2.49025183 167.52467506 -2.49025183 167.52467506 -4 172 C-8.68191549 171.54261927 -10.63104174 169.80889606 -13.8125 166.4375 C-14.60269531 165.61121094 -15.39289063 164.78492188 -16.20703125 163.93359375 C-16.79871094 163.29550781 -17.39039063 162.65742188 -18 162 C-17.71517632 163.41805831 -17.42181856 164.83440379 -17.125 166.25 C-16.96257812 167.03890625 -16.80015625 167.8278125 -16.6328125 168.640625 C-16.00849925 170.96831144 -15.15161458 172.89031952 -14 175 C-8.15645049 174.4929957 -3.50783907 173.30741754 1.8125 170.875 C2.50682129 170.56224121 3.20114258 170.24948242 3.91650391 169.92724609 C14.2775474 165.14577911 22.86375956 159.00018291 31 151 C32.03253906 149.98679688 32.03253906 149.98679688 33.0859375 148.953125 C43.15532323 138.36634 49.06303587 125.9137688 53 112 C53.53947266 110.18435547 53.53947266 110.18435547 54.08984375 108.33203125 C55.31470554 103.84788059 55.74261393 99.63294924 56 95 C56.07734375 93.7109375 56.1546875 92.421875 56.234375 91.09375 C57.2271173 66.63291245 48.63010029 44.12796359 32.3203125 25.9765625 C23.49365278 16.51421655 13.19497997 10.35659192 2 4 C2 3.34 2 2.68 2 2 C1.01 1.01 1.01 1.01 0 0 Z " fill="#293E87" transform="translate(148,24)"/>
<path d="M0 0 C2.5647293 1.50012468 4.89183465 2.89183465 7 5 C7.23529412 12.29411765 7.23529412 12.29411765 6 16 C8.64 16.66 11.28 17.32 14 18 C13.79375 19.11375 13.5875 20.2275 13.375 21.375 C13.189375 23.169375 13.189375 23.169375 13 25 C13.66 25.66 14.32 26.32 15 27 C15.81326933 29.21800728 16.12038845 30.535345 15.5234375 32.83935547 C14.9486932 35.21178414 14.90232272 37.25684276 14.9375 39.6953125 C14.94910156 41.01595703 14.94910156 41.01595703 14.9609375 42.36328125 C14.97382812 43.27464844 14.98671875 44.18601563 15 45.125 C15.02545645 46.94004522 15.04650746 48.75515923 15.0625 50.5703125 C15.07410156 51.37227051 15.08570313 52.17422852 15.09765625 53.00048828 C15 55 15 55 14 57 C17.55220762 69.72874396 24.45332736 79.12283427 34 88 C33.01 88.33 32.02 88.66 31 89 C30.01 88.505 30.01 88.505 29 88 C28.74347656 88.51046875 28.48695312 89.0209375 28.22265625 89.546875 C25.62532246 94.47918564 22.6700591 99.0690549 19.375 103.5625 C18.61960938 104.59503906 17.86421875 105.62757813 17.0859375 106.69140625 C16.39757813 107.45324219 15.70921875 108.21507812 15 109 C14.01 109 13.02 109 12 109 C12.495 109.61875 12.99 110.2375 13.5 110.875 C15 113 15 113 15 115 C10.35487238 113.57072996 7.44206199 110.91056022 4.125 107.5 C3.59616211 106.95956055 3.06732422 106.41912109 2.52246094 105.86230469 C-6.24741284 96.72679546 -11.5909346 86.32391354 -17 75 C-17.99 75.495 -17.99 75.495 -19 76 C-19.12375 75.195625 -19.2475 74.39125 -19.375 73.5625 C-19.58125 72.716875 -19.7875 71.87125 -20 71 C-20.66 70.67 -21.32 70.34 -22 70 C-21.34 69.01 -20.68 68.02 -20 67 C-20.2730774 64.10839021 -20.2730774 64.10839021 -21 61 C-24.08101576 46.53762007 -23.90598076 27.74770103 -18 14 C-17.01 13.67 -16.02 13.34 -15 13 C-13.41923012 10.51629513 -13.41923012 10.51629513 -12 7.5625 C-9.0508648 1.67190965 -6.88806531 -0.81036062 0 0 Z " fill="#283E87" transform="translate(45,69)"/>
<path d="M0 0 C0.99 0 1.98 0 3 0 C3.15855469 0.60585937 3.31710938 1.21171875 3.48046875 1.8359375 C5.43347272 8.84948767 7.74051543 16.74051543 13 22 C13.185625 21.0409375 13.185625 21.0409375 13.375 20.0625 C13.58125 19.381875 13.7875 18.70125 14 18 C14.66 17.67 15.32 17.34 16 17 C16.33 16.34 16.66 15.68 17 15 C17.3403125 16.2065625 17.3403125 16.2065625 17.6875 17.4375 C18.120625 18.283125 18.55375 19.12875 19 20 C21.54775306 20.89386164 21.54775306 20.89386164 24 21 C22.68 21.33 21.36 21.66 20 22 C20 22.66 20 23.32 20 24 C20.66 24 21.32 24 22 24 C21.67 24.66 21.34 25.32 21 26 C20.67 26 20.34 26 20 26 C19.67 26.66 19.34 27.32 19 28 C18.67 28 18.34 28 18 28 C18 28.66 18 29.32 18 30 C18.5671875 30.268125 19.134375 30.53625 19.71875 30.8125 C22.91718788 32.47744027 25.80967951 34.52717775 28.78125 36.5625 C30.80445853 37.87331116 32.82287326 38.97081281 35 40 C35 40.66 35 41.32 35 42 C38.3 42.33 41.6 42.66 45 43 C45 43.66 45 44.32 45 45 C56.41511016 44.75892059 66.21005013 43.9415342 77 40 C78.3281095 39.64642675 79.65971477 39.30417821 81 39 C81.33 39.99 81.66 40.98 82 42 C68.88422739 48.5262057 53.12731876 50.70910625 39 46 C39.33 46.99 39.66 47.98 40 49 C38.69930993 51.02138148 37.36014784 53.01813834 36 55 C35.02904041 57.30308473 34.13309988 59.63915743 33.3125 62 C32.68794922 63.7634375 32.68794922 63.7634375 32.05078125 65.5625 C31.08643335 68.71724407 30.45262911 71.73709124 30 75 C27.03 74.505 27.03 74.505 24 74 C23.67 74.66 23.34 75.32 23 76 C24.19238281 76.26554687 25.38476562 76.53109375 26.61328125 76.8046875 C28.17976175 77.16113217 29.74616398 77.51792097 31.3125 77.875 C32.49102539 78.13603516 32.49102539 78.13603516 33.69335938 78.40234375 C34.45068359 78.57636719 35.20800781 78.75039062 35.98828125 78.9296875 C36.68477783 79.08679199 37.38127441 79.24389648 38.09887695 79.40576172 C40 80 40 80 43 82 C41.9275 81.979375 40.855 81.95875 39.75 81.9375 C36.26806318 81.80433731 36.26806318 81.80433731 34.16015625 82.625 C24.10104707 84.3712468 8.24980371 73.59818007 0.21875 68.09375 C-2.291226 66.15566726 -4.65296847 64.13227047 -7 62 C-7.89203125 61.20078125 -8.7840625 60.4015625 -9.703125 59.578125 C-20.57675094 49.3119642 -29.59725434 36.42347448 -34 22 C-33.505 20.515 -33.505 20.515 -33 19 C-29.52148684 22.47851316 -27.43531223 26.01522771 -25.34985352 30.48217773 C-19.77207371 42.38507323 -10.53652584 57.56281014 2 63 C1.505 62.38125 1.01 61.7625 0.5 61.125 C-1 59 -1 59 -1 57 C-0.39623535 56.74331543 0.2075293 56.48663086 0.82958984 56.22216797 C3.23324405 54.8686592 4.19773604 53.71577261 5.7265625 51.4453125 C6.438125 50.39923828 6.438125 50.39923828 7.1640625 49.33203125 C7.64617187 48.60371094 8.12828125 47.87539062 8.625 47.125 C9.35976562 46.04412109 9.35976562 46.04412109 10.109375 44.94140625 C12.29367351 41.70076666 14.30514442 38.52760766 16 35 C16.99 35 17.98 35 19 35 C18.43152344 34.48953125 17.86304688 33.9790625 17.27734375 33.453125 C8.56007413 25.2452117 0.57004538 14.3107412 -0.1875 1.9375 C-0.0946875 0.9784375 -0.0946875 0.9784375 0 0 Z " fill="#293D87" transform="translate(58,121)"/>
<path d="M0 0 C2.64 0.66 5.28 1.32 8 2 C7.01 1.01 7.01 1.01 6 0 C10.75 0.75 10.75 0.75 13 3 C12.67 3.33 12.34 3.66 12 4 C12.77085937 4.36351562 13.54171875 4.72703125 14.3359375 5.1015625 C22.54592244 9.21710765 22.54592244 9.21710765 24.8125 13.125 C25.01129128 16.173133 24.72193348 17.51276276 23 20 C21 20 21 20 18.875 18 C18.25625 17.34 17.6375 16.68 17 16 C16.690625 17.1446875 16.690625 17.1446875 16.375 18.3125 C14.77664734 22.59899123 12.63161286 26.36604629 10.33984375 30.31640625 C9.03568916 32.92851762 8.42099683 35.12578708 8 38 C6.02 37.505 6.02 37.505 4 37 C6.60159769 39.74568618 9.43695201 41.73139046 12.57421875 43.81640625 C13.04472656 44.20699219 13.51523438 44.59757812 14 45 C14 45.66 14 46.32 14 47 C14.66 47 15.32 47 16 47 C16 47.66 16 48.32 16 49 C16.66 49 17.32 49 18 49 C19.56826812 51.07386807 20.9848709 53.12276411 22.375 55.3125 C22.77912109 55.94462402 23.18324219 56.57674805 23.59960938 57.22802734 C29.4788787 66.69250749 32.17868105 75.95867659 32.1875 87 C32.19974609 87.80695313 32.21199219 88.61390625 32.22460938 89.4453125 C32.22654297 90.22648437 32.22847656 91.00765625 32.23046875 91.8125 C32.23457764 92.52019531 32.23868652 93.22789063 32.24291992 93.95703125 C31.9621464 96.31835067 31.16578114 97.94392823 30 100 C30 98.02 30 96.04 30 94 C29.67 95.98 29.34 97.96 29 100 C28.67 100 28.34 100 28 100 C28.02320313 98.98421875 28.04640625 97.9684375 28.0703125 96.921875 C28.27202962 84.39401944 27.1360008 73.5760643 22 62 C21.32770247 60.33559673 20.65955335 58.66949442 20 57 C19.34 57 18.68 57 18 57 C17.67 58.32 17.34 59.64 17 61 C16.34 61 15.68 61 15 61 C14.67 61.99 14.34 62.98 14 64 C13.5875 63.195625 13.175 62.39125 12.75 61.5625 C11.26547669 58.85890282 11.26547669 58.85890282 8.8125 58.1875 C8.214375 58.125625 7.61625 58.06375 7 58 C7 57.34 7 56.68 7 56 C7.99 56 8.98 56 10 56 C9.67 55.01 9.34 54.02 9 53 C10.65 53.66 12.3 54.32 14 55 C14 53.68 14 52.36 14 51 C12.0399719 49.36323743 12.0399719 49.36323743 10 48 C10 47.34 10 46.68 10 46 C9.484375 45.7421875 8.96875 45.484375 8.4375 45.21875 C-8 37 -8 37 -9.94482422 35.91308594 C-12.20277047 34.90991191 -13.7369063 34.74217063 -16.1953125 34.734375 C-16.98881104 34.73018555 -17.78230957 34.72599609 -18.59985352 34.72167969 C-19.43315186 34.73102539 -20.2664502 34.74037109 -21.125 34.75 C-22.4087854 34.76015137 -22.4087854 34.76015137 -23.71850586 34.77050781 C-36.73267425 34.98342867 -47.5588152 38.16028811 -58.1875 45.828125 C-60 47 -60 47 -62 47 C-62.2475 47.598125 -62.495 48.19625 -62.75 48.8125 C-64 51 -64 51 -66 52.4375 C-68.54483754 54.42565433 -68.87990509 55.96915494 -70 59 C-70.82050427 60.44486105 -71.65528602 61.88165795 -72.5 63.3125 C-74.87998604 67.49678224 -76.05840447 71.29202236 -77 76 C-77.99 75.34 -78.98 74.68 -80 74 C-78.82051253 62.00854407 -71.63732535 51.46121993 -62.46484375 43.9140625 C-50.95597629 35.20552425 -40.50053589 30.62734531 -26 30.8125 C-25.0409375 30.81314453 -24.081875 30.81378906 -23.09375 30.81445312 C-17.96179282 30.84617539 -13.0573328 31.12199083 -8 32 C-8 31.34 -8 30.68 -8 30 C-9.051875 30.04125 -10.10375 30.0825 -11.1875 30.125 C-14.77352774 30.00742532 -16.79938677 29.46313748 -20 28 C-20.66 28 -21.32 28 -22 28 C-21.125 21.25 -21.125 21.25 -20 19 C-19.01 19 -18.02 19 -17 19 C-16.01 20.98 -15.02 22.96 -14 25 C-12.68 25 -11.36 25 -10 25 C-9.96747064 22.70808151 -9.96747064 22.70808151 -11 20 C-12.60270573 18.49100885 -12.60270573 18.49100885 -14.5 17.0625 C-17.13173818 14.95061134 -17.92237056 14.21132459 -19.125 10.9375 C-18.93536614 6.48110423 -17.08355856 4.08355856 -14 1 C-9.44755354 0.65641914 -6.11418186 1.00524516 -2 3 C-1.34 2.01 -0.68 1.02 0 0 Z " fill="#253C88" transform="translate(139,24)"/>
<path d="M0 0 C-0.99255566 2.00746617 -1.98651907 3.97736133 -3.1328125 5.90234375 C-4.37428649 8.44883173 -4.92602959 10.14392033 -5 13 C-3.29945459 16.68736354 -1.28331283 19.87013809 1.046875 23.1796875 C3 26 3 26 4 29 C0.7 29.33 -2.6 29.66 -6 30 C-6.1546875 28.3603125 -6.1546875 28.3603125 -6.3125 26.6875 C-6.97307727 23.14440371 -7.2027092 22.06756277 -10 20 C-9.54177532 23.46941546 -9.10868317 26.67395049 -8 30 C-8.72445312 30.19335938 -9.44890625 30.38671875 -10.1953125 30.5859375 C-15.18045615 31.92860286 -20.12594691 33.28749486 -25 35 C-25.391875 34.236875 -25.78375 33.47375 -26.1875 32.6875 C-28.16668978 29.75283929 -29.8866817 28.59873102 -33 27 C-32.38003922 28.29409289 -31.75383647 29.58519673 -31.125 30.875 C-30.77695313 31.59429687 -30.42890625 32.31359375 -30.0703125 33.0546875 C-29.03442457 35.15135019 -29.03442457 35.15135019 -27 37 C-27.66386719 37.37511719 -28.32773438 37.75023437 -29.01171875 38.13671875 C-33.97521791 41.01337447 -38.1966599 43.68954789 -42 48 C-42.33 47.01 -42.66 46.02 -43 45 C-45.01508358 44.26676204 -45.01508358 44.26676204 -47 44 C-47.99 45.32 -48.98 46.64 -50 48 C-48.35 49.32 -46.7 50.64 -45 52 C-46.28062485 53.7074998 -47.61767557 55.37373596 -49 57 C-49.66 57 -50.32 57 -51 57 C-51.4021875 55.99582031 -51.804375 54.99164063 -52.21875 53.95703125 C-53.94258438 49.93980923 -56.11960453 46.34451021 -58.5 42.6875 C-58.89058594 42.06810547 -59.28117187 41.44871094 -59.68359375 40.81054688 C-61.60517442 37.83112634 -63.01136278 35.99242482 -66 34 C-64.71480435 31.13302508 -63.42870746 29.02392288 -61 27 C-59 27 -59 27 -57.61694336 28.36083984 C-57.08335205 28.9017627 -56.54976074 29.44268555 -56 30 C-54.15685212 31.18540053 -54.15685212 31.18540053 -52.12890625 32.2265625 C-51.38962891 32.6184375 -50.65035156 33.0103125 -49.88867188 33.4140625 C-49.12103516 33.81367187 -48.35339844 34.21328125 -47.5625 34.625 C-46.79873047 35.03234375 -46.03496094 35.4396875 -45.24804688 35.859375 C-41.83889691 37.6514782 -38.78562024 39.18340046 -35 40 C-36.26752425 37.26925298 -37.53888332 34.54040402 -38.8125 31.8125 C-39.16892578 31.04357422 -39.52535156 30.27464844 -39.89257812 29.48242188 C-43.17036634 22.2336208 -43.17036634 22.2336208 -48 16 C-46.70903219 15.18639005 -45.41720125 14.37414954 -44.125 13.5625 C-43.40570313 13.11003906 -42.68640625 12.65757813 -41.9453125 12.19140625 C-38.10756613 9.84097926 -35.54844324 9.52947139 -31 10 C-27.34492287 13.27033217 -26.41828255 16.18975069 -26 21 C-26 21.99 -26 22.98 -26 24 C-24.57028517 25.42938171 -24.57028517 25.42938171 -22.6875 26.625 C-22.07261719 27.05039062 -21.45773438 27.47578125 -20.82421875 27.9140625 C-18.88279528 29.15770196 -18.88279528 29.15770196 -16 30 C-16.47414469 26.06187819 -16.95517384 22.12462747 -17.4375 18.1875 C-17.57220703 17.06794922 -17.70691406 15.94839844 -17.84570312 14.79492188 C-17.97783203 13.72177734 -18.10996094 12.64863281 -18.24609375 11.54296875 C-18.36654053 10.55321045 -18.4869873 9.56345215 -18.61108398 8.54370117 C-18.94403366 5.88587629 -18.94403366 5.88587629 -20 3 C-15.545 2.505 -15.545 2.505 -11 2 C-11 5.63 -11 9.26 -11 13 C-8.29155119 7.26709085 -8.29155119 7.26709085 -8 1 C-5.23735711 0.40267181 -2.83967231 0 0 0 Z " fill="#F5F6F8" transform="translate(112,23)"/>
<path d="M0 0 C0.33 0.66 0.66 1.32 1 2 C2.0828125 1.443125 2.0828125 1.443125 3.1875 0.875 C6.60988311 -0.18974141 7.88228073 0.39660152 11 2 C10.34 2.33 9.68 2.66 9 3 C11.90477321 4.04222029 11.90477321 4.04222029 14.625 4.5 C17 5 17 5 18 6 C18.12487758 7.80927281 18.17570846 9.62396107 18.1875 11.4375 C18.20167969 12.42621094 18.21585938 13.41492188 18.23046875 14.43359375 C18 17 18 17 16 19 C15.01 18.01 14.02 17.02 13 16 C13.495 18.97 13.495 18.97 14 22 C14.99 22.33 15.98 22.66 17 23 C15.95902388 26.86648272 14.96301592 30.49461443 13 34 C12.34 34 11.68 34 11 34 C11.495 35.98 11.495 35.98 12 38 C13.32 38.33 14.64 38.66 16 39 C16.495 42.96 16.495 42.96 17 47 C16.01 46.505 16.01 46.505 15 46 C15.50603992 48.16874252 15.99983813 49.99967627 17 52 C15.01432292 52.22786458 13.02864583 52.45572917 11.04296875 52.68359375 C8.80603607 52.97170735 8.80603607 52.97170735 6 54 C5.34 53.34 4.68 52.68 4 52 C4 50.68 4 49.36 4 48 C5.32 48 6.64 48 8 48 C8 48.66 8 49.32 8 50 C8.99 50 9.98 50 11 50 C11 48.35 11 46.7 11 45 C10.01 45 9.02 45 8 45 C8 44.01 8 43.02 8 42 C7.01 42 6.02 42 5 42 C5 42.66 5 43.32 5 44 C3.68 43.34 2.36 42.68 1 42 C1 40.35 1 38.7 1 37 C-0.65 37 -2.3 37 -4 37 C-3.835 37.598125 -3.67 38.19625 -3.5 38.8125 C-2.8923677 41.47089133 -2.79778949 43.42145326 -3.703125 46.01171875 C-6.23643502 49.89561875 -10.74724908 51.49137888 -15 53 C-18.625 52.8125 -18.625 52.8125 -21 52 C-20.67 51.34 -20.34 50.68 -20 50 C-20.495 48.515 -20.495 48.515 -21 47 C-18.03 47 -15.06 47 -12 47 C-11.34 45.02 -10.68 43.04 -10 41 C-10.99 40.67 -11.98 40.34 -13 40 C-13 39.01 -13 38.02 -13 37 C-8.38987758 34.04952165 -5.63470383 32.4502728 0 33 C-0.34786708 31.02463255 -0.34786708 31.02463255 -1 29 C-1.66 28.67 -2.32 28.34 -3 28 C-3 27.34 -3 26.68 -3 26 C-4.32 26.33 -5.64 26.66 -7 27 C-7 25.35 -7 23.7 -7 22 C-7.45375 23.134375 -7.9075 24.26875 -8.375 25.4375 C-10 29 -10 29 -12 30 C-12.99 30 -13.98 30 -15 30 C-15.66 30.66 -16.32 31.32 -17 32 C-19.625 31.625 -19.625 31.625 -22 31 C-22.33 29.02 -22.66 27.04 -23 25 C-22.01 24.67 -21.02 24.34 -20 24 C-20 24.66 -20 25.32 -20 26 C-15.56541027 24.6062718 -13.12621626 22.39417765 -10 19 C-11.65 19.66 -13.3 20.32 -15 21 C-14.6875 19.125 -14.6875 19.125 -14 17 C-13.01 16.34 -12.02 15.68 -11 15 C-11 14.01 -11 13.02 -11 12 C-9 12 -9 12 -7.375 13.5 C-6.92125 13.995 -6.4675 14.49 -6 15 C-5.608125 14.505 -5.21625 14.01 -4.8125 13.5 C-2.44908285 11.54406857 -0.98564997 11.75792027 2 12 C1.34 11.01 0.68 10.02 0 9 C-1.32 9.33 -2.64 9.66 -4 10 C-4.33 8.68 -4.66 7.36 -5 6 C-4.01 5.34 -3.02 4.68 -2 4 C-0.80767387 1.94996045 -0.80767387 1.94996045 0 0 Z " fill="#B52B30" transform="translate(117,85)"/>
<path d="M0 0 C10.76016714 1.57126285 19.97660888 9.12076448 28 16 C28.58910156 16.44472656 29.17820312 16.88945313 29.78515625 17.34765625 C46.14178316 29.99214088 57.14765012 52.86556794 60 73 C61.03754765 88.18633752 61.25028755 103.56598472 56 118 C55.61457031 119.06734375 55.22914063 120.1346875 54.83203125 121.234375 C45.00688718 146.29008221 27.33799245 163.97867283 3.08886719 175.09521484 C-9.00912632 180.33541633 -20.29548305 182.16389242 -33.4375 182.0625 C-34.55060547 182.05798828 -35.66371094 182.05347656 -36.81054688 182.04882812 C-39.54042101 182.03711193 -42.27018174 182.02070699 -45 182 C-43.27896949 179.85380737 -42.36401178 179.06798867 -39.6184082 178.55517578 C-38.22368286 178.50079346 -38.22368286 178.50079346 -36.80078125 178.4453125 C-35.76429443 178.39101074 -34.72780762 178.33670898 -33.65991211 178.28076172 C-32.55526611 178.22936035 -31.45062012 178.17795898 -30.3125 178.125 C-5.74970662 176.5328537 16.31736541 166.67700713 33.58203125 148.8359375 C38.03161925 143.61719616 41.5471795 137.91029513 45 132 C45.74056641 130.75283203 45.74056641 130.75283203 46.49609375 129.48046875 C52.09256656 119.24642034 55.71758474 106.66208888 56 95 C56.07347656 93.72382812 56.14695312 92.44765625 56.22265625 91.1328125 C57.26548287 66.66903555 48.62721817 44.12475603 32.3203125 25.9765625 C23.49365278 16.51421655 13.19497997 10.35659192 2 4 C2 3.34 2 2.68 2 2 C1.34 1.34 0.68 0.68 0 0 Z " fill="#8A3955" transform="translate(148,24)"/>
<path d="M0 0 C10.96998399 6.43068027 23.54157695 17.22540171 29 29 C29 29.99 29 30.98 29 32 C27.68 31.67 26.36 31.34 25 31 C24.67 31.99 24.34 32.98 24 34 C22.18994141 35.16674805 22.18994141 35.16674805 19.8515625 36.26171875 C19.01109375 36.65810547 18.170625 37.05449219 17.3046875 37.46289062 C16.42039063 37.86701172 15.53609375 38.27113281 14.625 38.6875 C13.7484375 39.10322266 12.871875 39.51894531 11.96875 39.94726562 C5.41213824 43 5.41213824 43 2 43 C1.70671023 38.93699497 2.36542786 36.80157934 4.5546875 33.390625 C5.08707031 32.55402344 5.61945313 31.71742187 6.16796875 30.85546875 C6.73128906 29.99566406 7.29460937 29.13585937 7.875 28.25 C8.43058594 27.37472656 8.98617187 26.49945313 9.55859375 25.59765625 C13.71044643 19.14477679 13.71044643 19.14477679 16 18 C13.69 16.02 11.38 14.04 9 12 C8.67 13.32 8.34 14.64 8 16 C6.29760742 17.35620117 6.29760742 17.35620117 4.10546875 18.54296875 C3.31462891 18.97673828 2.52378906 19.41050781 1.70898438 19.85742188 C0.87689453 20.29634766 0.04480469 20.73527344 -0.8125 21.1875 C-1.63298828 21.63802734 -2.45347656 22.08855469 -3.29882812 22.55273438 C-6.84739165 24.47235471 -10.02946169 26.16088581 -14 27 C-12.68 28.32 -11.36 29.64 -10 31 C-8.68 29.68 -7.36 28.36 -6 27 C-2.83884224 28.36983503 -2.0072908 28.9890638 0 32 C-0.66 32.99 -1.32 33.98 -2 35 C-3.32 35 -4.64 35 -6 35 C-6 35.99 -6 36.98 -6 38 C-6.66 38 -7.32 38 -8 38 C-8 37.34 -8 36.68 -8 36 C-8.66 36 -9.32 36 -10 36 C-10 35.34 -10 34.68 -10 34 C-10.515625 33.773125 -11.03125 33.54625 -11.5625 33.3125 C-14.92403127 31.5024447 -17.92911144 29.26003596 -21 27 C-20.34 26.34 -19.68 25.68 -19 25 C-18.34 25.33 -17.68 25.66 -17 26 C-16.78085938 25.40574219 -16.56171875 24.81148437 -16.3359375 24.19921875 C-13.76087442 17.46846443 -10.56781905 11.25557606 -7 5 C-5.68 5.66 -4.36 6.32 -3 7 C-3 7.66 -3 8.32 -3 9 C-2.34 9 -1.68 9 -1 9 C-0.67 6.03 -0.34 3.06 0 0 Z " fill="#233B88" transform="translate(163,35)"/>
<path d="M0 0 C3.7952131 1.49097658 5.61042731 3.75700849 8 7 C7.01 7 6.02 7 5 7 C4.76410156 7.680625 4.52820313 8.36125 4.28515625 9.0625 C2.42679583 13.31018095 -0.20599766 17.01301065 -2.81054688 20.828125 C-5.04722483 24.19595433 -6.5629264 26.95131819 -7 31 C-4.45745253 29.89782681 -1.9159574 28.79332822 0.625 27.6875 C1.33785156 27.37876953 2.05070312 27.07003906 2.78515625 26.75195312 C10.48080232 24.09350217 10.48080232 24.09350217 16 19 C16.66 19 17.32 19 18 19 C18.84511824 20.72343755 19.67563354 22.45404053 20.5 24.1875 C20.9640625 25.15042969 21.428125 26.11335938 21.90625 27.10546875 C23.01303442 30.03449465 23.3687357 31.9078878 23 35 C18.86636231 40.51151692 12.42239053 43.97117998 5.75 45.5234375 C3.6875 45.6875 3.6875 45.6875 0 45 C-4.3028198 41.19750809 -6.28848558 36.54610332 -8.73046875 31.4140625 C-10.44064657 28.1620936 -12.51760981 25.69516649 -15 23 C-13.68 23 -12.36 23 -11 23 C-10.22757731 21.16299211 -10.22757731 21.16299211 -10 19 C-11.35444301 17.22809091 -11.35444301 17.22809091 -13 16 C-15.46800047 17.15173355 -17.04783565 18.04783565 -19 20 C-20.65 18.02 -22.3 16.04 -24 14 C-23.01773438 13.76152344 -22.03546875 13.52304687 -21.0234375 13.27734375 C-16.53517602 11.99191471 -12.66460415 9.86499997 -8.625 7.5625 C-7.54025391 6.96985352 -7.54025391 6.96985352 -6.43359375 6.36523438 C-5.74652344 5.97787109 -5.05945313 5.59050781 -4.3515625 5.19140625 C-3.42077881 4.66848999 -3.42077881 4.66848999 -2.47119141 4.13500977 C-0.68063866 2.97185852 -0.68063866 2.97185852 0 0 Z " fill="#F5F6F9" transform="translate(172,47)"/>
<path d="M0 0 C0.66942627 0.11762695 1.33885254 0.23525391 2.02856445 0.35644531 C6.86709485 1.30296958 11.24825886 2.87500379 15.8125 4.6875 C15.4825 5.3475 15.1525 6.0075 14.8125 6.6875 C15.8025 7.6775 15.8025 7.6775 16.8125 8.6875 C15.595625 8.419375 14.37875 8.15125 13.125 7.875 C12.28453125 7.69582031 11.4440625 7.51664063 10.578125 7.33203125 C7.8125 6.6875 7.8125 6.6875 5.234375 5.88671875 C-17.68983673 -0.7212166 -42.60878406 3.40774784 -63.27734375 14.59326172 C-85.47547068 27.30952002 -99.34942507 47.84750868 -106.5625 72 C-110.19576606 86.33900256 -109.70999251 103.01137128 -105.74609375 117.2109375 C-105.1875 119.6875 -105.1875 119.6875 -106.1875 122.6875 C-113.23756538 115.63743462 -113.48686267 104.18477958 -113.5 94.6875 C-113.14929848 67.6179044 -103.29924022 44.62680954 -84.75390625 25.12890625 C-70.80695045 11.91479541 -53.06027413 3.03008942 -34.1875 -0.3125 C-33.25808594 -0.49554687 -32.32867187 -0.67859375 -31.37109375 -0.8671875 C-21.03033909 -2.31362435 -10.25713033 -1.80987865 0 0 Z " fill="#993E54" transform="translate(132.1875,18.3125)"/>
<path d="M0 0 C4.63620261 3.0506921 4.63620261 3.0506921 6.55859375 4.68359375 C6.55859375 5.34359375 6.55859375 6.00359375 6.55859375 6.68359375 C7.21859375 6.68359375 7.87859375 6.68359375 8.55859375 6.68359375 C8.55859375 7.34359375 8.55859375 8.00359375 8.55859375 8.68359375 C9.21859375 8.68359375 9.87859375 8.68359375 10.55859375 8.68359375 C12.12686187 10.75746182 13.54346465 12.80635786 14.93359375 14.99609375 C15.33771484 15.62821777 15.74183594 16.2603418 16.15820312 16.91162109 C22.03747245 26.37610124 24.7372748 35.64227034 24.74609375 46.68359375 C24.75833984 47.49054688 24.77058594 48.2975 24.78320312 49.12890625 C24.78513672 49.91007812 24.78707031 50.69125 24.7890625 51.49609375 C24.79317139 52.20378906 24.79728027 52.91148438 24.80151367 53.640625 C24.52074015 56.00194442 23.72437489 57.62752198 22.55859375 59.68359375 C22.55859375 57.70359375 22.55859375 55.72359375 22.55859375 53.68359375 C22.22859375 55.66359375 21.89859375 57.64359375 21.55859375 59.68359375 C21.22859375 59.68359375 20.89859375 59.68359375 20.55859375 59.68359375 C20.58179688 58.6678125 20.605 57.65203125 20.62890625 56.60546875 C20.83062337 44.07761319 19.69459455 33.25965805 14.55859375 21.68359375 C13.88629622 20.01919048 13.2181471 18.35308817 12.55859375 16.68359375 C11.89859375 16.68359375 11.23859375 16.68359375 10.55859375 16.68359375 C10.22859375 18.00359375 9.89859375 19.32359375 9.55859375 20.68359375 C8.89859375 20.68359375 8.23859375 20.68359375 7.55859375 20.68359375 C7.06359375 22.16859375 7.06359375 22.16859375 6.55859375 23.68359375 C6.14609375 22.87921875 5.73359375 22.07484375 5.30859375 21.24609375 C3.82407044 18.54249657 3.82407044 18.54249657 1.37109375 17.87109375 C0.77296875 17.80921875 0.17484375 17.74734375 -0.44140625 17.68359375 C-0.44140625 17.02359375 -0.44140625 16.36359375 -0.44140625 15.68359375 C0.54859375 15.68359375 1.53859375 15.68359375 2.55859375 15.68359375 C2.06359375 14.19859375 2.06359375 14.19859375 1.55859375 12.68359375 C3.20859375 13.34359375 4.85859375 14.00359375 6.55859375 14.68359375 C6.55859375 13.36359375 6.55859375 12.04359375 6.55859375 10.68359375 C4.59856565 9.04683118 4.59856565 9.04683118 2.55859375 7.68359375 C2.55859375 7.02359375 2.55859375 6.36359375 2.55859375 5.68359375 C2.04296875 5.42578125 1.52734375 5.16796875 0.99609375 4.90234375 C-15.44140625 -3.31640625 -15.44140625 -3.31640625 -17.38623047 -4.40332031 C-19.64417672 -5.40649434 -21.17831255 -5.57423562 -23.63671875 -5.58203125 C-24.43021729 -5.5862207 -25.22371582 -5.59041016 -26.04125977 -5.59472656 C-26.87455811 -5.58538086 -27.70785645 -5.57603516 -28.56640625 -5.56640625 C-29.85019165 -5.55625488 -29.85019165 -5.55625488 -31.15991211 -5.54589844 C-44.1740805 -5.33297758 -55.00022145 -2.15611814 -65.62890625 5.51171875 C-67.44140625 6.68359375 -67.44140625 6.68359375 -69.44140625 6.68359375 C-69.68890625 7.28171875 -69.93640625 7.87984375 -70.19140625 8.49609375 C-71.44140625 10.68359375 -71.44140625 10.68359375 -73.44140625 12.12109375 C-75.98624379 14.10924808 -76.32131134 15.65274869 -77.44140625 18.68359375 C-78.26191052 20.1284548 -79.09669227 21.5652517 -79.94140625 22.99609375 C-82.32139229 27.18037599 -83.49981072 30.97561611 -84.44140625 35.68359375 C-85.43140625 35.02359375 -86.42140625 34.36359375 -87.44140625 33.68359375 C-86.26191878 21.69213782 -79.0787316 11.14481368 -69.90625 3.59765625 C-48.32956818 -12.72900313 -23.21541705 -14.14344947 0 0 Z " fill="#B09256" transform="translate(146.44140625,64.31640625)"/>
<path d="M0 0 C3.49319403 2.22294165 5.47794555 4.1746596 7 8 C7.82148498 14.68650568 7.44406708 20.4980643 4.265625 26.4765625 C1.85896948 29.37346267 -0.73790177 29.95631696 -4.375 30.5625 C-8.73223812 29.88637684 -10.27227616 28.85360249 -12.890625 25.390625 C-15.19377403 20.42750102 -14.88763847 15.2997238 -14 10 C-11.3053779 3.34509996 -7.63316321 -0.91597959 0 0 Z " fill="#B12A30" transform="translate(111,170)"/>
<path d="M0 0 C0.33 0.66 0.66 1.32 1 2 C1.721875 1.62875 2.44375 1.2575 3.1875 0.875 C6.60988311 -0.18974141 7.88228073 0.39660152 11 2 C10.01 2.495 10.01 2.495 9 3 C11.90477321 4.04222029 11.90477321 4.04222029 14.625 4.5 C17 5 17 5 18 6 C18.12487758 7.80927281 18.17570846 9.62396107 18.1875 11.4375 C18.20167969 12.42621094 18.21585938 13.41492188 18.23046875 14.43359375 C18 17 18 17 16 19 C15.01 18.01 14.02 17.02 13 16 C13.33 17.98 13.66 19.96 14 22 C14.99 22.33 15.98 22.66 17 23 C15.95902388 26.86648272 14.96301592 30.49461443 13 34 C8.58848955 32.52949652 6.14860084 28.95377777 4 25 C4 24.01 4 23.02 4 22 C1.69 22 -0.62 22 -3 22 C-3 21.01 -3 20.02 -3 19 C-4.32 19 -5.64 19 -7 19 C-7 18.34 -7 17.68 -7 17 C-6.34 17 -5.68 17 -5 17 C-4.34 15.35 -3.68 13.7 -3 12 C-1.35 12 0.3 12 2 12 C1.34 11.01 0.68 10.02 0 9 C-1.32 9.33 -2.64 9.66 -4 10 C-4.33 8.68 -4.66 7.36 -5 6 C-4.01 5.34 -3.02 4.68 -2 4 C-0.80767387 1.94996045 -0.80767387 1.94996045 0 0 Z " fill="#EDCFD0" transform="translate(117,85)"/>
<path d="M0 0 C0.02578125 0.55945313 0.0515625 1.11890625 0.078125 1.6953125 C0.55318059 8.41087106 2.1808976 14.40531571 4.2578125 20.80078125 C5.00708476 24.03053905 4.93121047 25.85863811 4 29 C-0.68191549 28.54261927 -2.63104174 26.80889606 -5.8125 23.4375 C-6.60269531 22.61121094 -7.39289063 21.78492188 -8.20703125 20.93359375 C-8.79871094 20.29550781 -9.39039063 19.65742188 -10 19 C-9.71640113 20.4391134 -9.42278601 21.87625518 -9.125 23.3125 C-8.96257812 24.11300781 -8.80015625 24.91351563 -8.6328125 25.73828125 C-8.05521001 28.25301118 -8.05521001 28.25301118 -6 31 C-8.64 31.66 -11.28 32.32 -14 33 C-14.18175781 31.96101563 -14.36351563 30.92203125 -14.55078125 29.8515625 C-15.94139009 22.07441922 -17.46379338 14.50167139 -20 7 C-20.33 6.01 -20.66 5.02 -21 4 C-17.83984375 3.19140625 -17.83984375 3.19140625 -14 3 C-11.12890625 5.08984375 -11.12890625 5.08984375 -8.5625 7.9375 C-7.69753906 8.87464844 -6.83257812 9.81179687 -5.94140625 10.77734375 C-5.30074219 11.51082031 -4.66007812 12.24429688 -4 13 C-4.20496094 12.38511719 -4.40992188 11.77023438 -4.62109375 11.13671875 C-5.74739583 7.7578125 -6.87369792 4.37890625 -8 1 C-5.29120665 -0.35439668 -2.99066732 -0.06501451 0 0 Z " fill="#B12A31" transform="translate(140,167)"/>
<path d="M0 0 C0.33 0 0.66 0 1 0 C1.309375 1.093125 1.61875 2.18625 1.9375 3.3125 C2.58337897 5.55407994 3.2623117 7.7869351 4 10 C7.42232972 11.14077657 10.08673217 11.09815117 13.6875 11.0625 C14.86699219 11.05347656 16.04648438 11.04445312 17.26171875 11.03515625 C18.16535156 11.02355469 19.06898438 11.01195312 20 11 C20.495 13.475 20.495 13.475 21 16 C17.33694766 16.74926071 14.57644848 17.2380014 11 16 C12.12451727 18.9719385 13.22293791 21.33440687 15 24 C15.33 23.34 15.66 22.68 16 22 C18.5625 21.375 18.5625 21.375 21 21 C21.495 22.485 21.495 22.485 22 24 C0.55887778 35.0757208 0.55887778 35.0757208 -5.9375 34.9375 C-8.62448443 33.71614344 -8.88160738 32.69620793 -10 30 C-10.42663286 28.26186612 -10.80076859 26.51011335 -11.125 24.75 C-11.29257813 23.85796875 -11.46015625 22.9659375 -11.6328125 22.046875 C-11.81457031 21.03367188 -11.81457031 21.03367188 -12 20 C-5.41611625 25.54821664 -5.41611625 25.54821664 -2.8125 28.375 C-0.90933583 30.44503001 -0.90933583 30.44503001 3 30 C2.20028427 24.54661933 0.8046939 19.29795792 -0.71484375 14.00976562 C-1.95324069 9.36354977 -2.06458673 5.79064027 -1 1 C-0.67 0.67 -0.34 0.34 0 0 Z " fill="#293D87" transform="translate(141,165)"/>
<path d="M0 0 C0.99 0 1.98 0 3 0 C3.15855469 0.60585937 3.31710938 1.21171875 3.48046875 1.8359375 C5.43347272 8.84948767 7.74051543 16.74051543 13 22 C13.12375 21.360625 13.2475 20.72125 13.375 20.0625 C13.58125 19.381875 13.7875 18.70125 14 18 C14.66 17.67 15.32 17.34 16 17 C16.33 16.34 16.66 15.68 17 15 C17.3403125 16.2065625 17.3403125 16.2065625 17.6875 17.4375 C18.120625 18.283125 18.55375 19.12875 19 20 C21.54775306 20.89386164 21.54775306 20.89386164 24 21 C22.68 21.33 21.36 21.66 20 22 C20 22.66 20 23.32 20 24 C20.66 24 21.32 24 22 24 C21.67 24.66 21.34 25.32 21 26 C20.67 26 20.34 26 20 26 C19.67 26.66 19.34 27.32 19 28 C18.67 28 18.34 28 18 28 C18 28.66 18 29.32 18 30 C18.5671875 30.268125 19.134375 30.53625 19.71875 30.8125 C22.91718788 32.47744027 25.80967951 34.52717775 28.78125 36.5625 C30.80445853 37.87331116 32.82287326 38.97081281 35 40 C35 40.66 35 41.32 35 42 C38.3 42.33 41.6 42.66 45 43 C45 43.66 45 44.32 45 45 C56.41511016 44.75892059 66.21005013 43.9415342 77 40 C78.3281095 39.64642675 79.65971477 39.30417821 81 39 C81.33 39.99 81.66 40.98 82 42 C68.9658165 48.48560822 54.23088404 50.42602227 40.125 46.3125 C38.0684873 45.58219709 36.02513846 44.81326564 34 44 C33.11699219 43.649375 32.23398438 43.29875 31.32421875 42.9375 C24.45009801 39.85857811 19.30070203 35.28226481 14 30 C13.43410156 29.45730469 12.86820313 28.91460937 12.28515625 28.35546875 C5.16844497 20.89896754 0.17726742 10.28151038 0 0 Z " fill="#AB8E58" transform="translate(58,121)"/>
<path d="M0 0 C0.66 0 1.32 0 2 0 C4.1875 2.75 4.1875 2.75 6 6 C5.67 7.32 5.34 8.64 5 10 C1.7 9.67 -1.6 9.34 -5 9 C-4.67 9.99 -4.34 10.98 -4 12 C-3.11957031 11.94199219 -2.23914063 11.88398438 -1.33203125 11.82421875 C8.02868031 11.4605951 8.02868031 11.4605951 10.94140625 13.078125 C12.25 14.4375 12.25 14.4375 14 17 C14.33 17.33 14.66 17.66 15 18 C15.49995165 22.33291429 15.50704714 24.31399505 12.875 27.875 C9.76878461 30.17089833 7.81136138 30.73409107 4 31 C3.505 32.485 3.505 32.485 3 34 C2.13342884 32.90554162 1.28207276 31.79902219 0.4375 30.6875 C-0.03816406 30.07261719 -0.51382813 29.45773438 -1.00390625 28.82421875 C-1.33261719 28.22222656 -1.66132813 27.62023437 -2 27 C-1.67 26.01 -1.34 25.02 -1 24 C2.3 24.33 5.6 24.66 9 25 C8.67 23.68 8.34 22.36 8 21 C7.11957031 21.05800781 6.23914063 21.11601562 5.33203125 21.17578125 C-4.10189983 21.54224916 -4.10189983 21.54224916 -8.3125 19 C-10.47044779 15.16364837 -11.08334888 12.29872837 -10 8 C-7.8125 5 -7.8125 5 -5 3 C-2.1875 2.6875 -2.1875 2.6875 0 3 C0 2.01 0 1.02 0 0 Z " fill="#B12A31" transform="translate(153,156)"/>
<path d="M0 0 C-0.99255566 2.00746617 -1.98651907 3.97736133 -3.1328125 5.90234375 C-4.37428649 8.44883173 -4.92602959 10.14392033 -5 13 C-3.29945459 16.68736354 -1.28331283 19.87013809 1.046875 23.1796875 C3 26 3 26 4 29 C-0.95 29.495 -0.95 29.495 -6 30 C-6.103125 28.906875 -6.20625 27.81375 -6.3125 26.6875 C-6.97307727 23.14440371 -7.2027092 22.06756277 -10 20 C-9.54177532 23.46941546 -9.10868317 26.67395049 -8 30 C-11.3 30.66 -14.6 31.32 -18 32 C-18 31.34 -18 30.68 -18 30 C-17.34 30 -16.68 30 -16 30 C-16.47414469 26.06187819 -16.95517384 22.12462747 -17.4375 18.1875 C-17.57220703 17.06794922 -17.70691406 15.94839844 -17.84570312 14.79492188 C-17.97783203 13.72177734 -18.10996094 12.64863281 -18.24609375 11.54296875 C-18.36654053 10.55321045 -18.4869873 9.56345215 -18.61108398 8.54370117 C-18.94403366 5.88587629 -18.94403366 5.88587629 -20 3 C-15.545 2.505 -15.545 2.505 -11 2 C-11 5.63 -11 9.26 -11 13 C-8.29155119 7.26709085 -8.29155119 7.26709085 -8 1 C-5.23735711 0.40267181 -2.83967231 0 0 0 Z " fill="#F2F2F6" transform="translate(112,23)"/>
<path d="M0 0 C2.5647293 1.50012468 4.89183465 2.89183465 7 5 C7.23529412 12.29411765 7.23529412 12.29411765 6 16 C8.64 16.66 11.28 17.32 14 18 C13.50168276 21.68754757 12.89932357 23.60490662 10 26 C9.57887939 25.54189941 9.15775879 25.08379883 8.72387695 24.61181641 C6.9853554 22.98630737 5.58222868 22.1630874 3.41796875 21.2109375 C2.73283203 20.90929687 2.04769531 20.60765625 1.34179688 20.296875 C0.27541992 19.84054688 0.27541992 19.84054688 -0.8125 19.375 C-1.51181641 19.06304687 -2.21113281 18.75109375 -2.93164062 18.4296875 C-6.94917934 16.68587275 -10.60890201 15.51011185 -15 15 C-13.564062 9.77840726 -11.22421694 5.329958 -8 1 C-5.13391871 -0.43304064 -3.18699217 -0.30644155 0 0 Z " fill="#F4F4F8" transform="translate(45,69)"/>
<path d="M0 0 C3.44193132 1.0325794 4.10677766 2.18696899 5.9296875 5.37890625 C6.587869 6.76886514 7.23582449 8.16369935 7.875 9.5625 C16.46385984 27.45446998 29.36414065 42.41831264 47 52 C49.19895944 52.69918869 49.19895944 52.69918869 51 53 C51 53.66 51 54.32 51 55 C52.04220703 55.18755859 52.04220703 55.18755859 53.10546875 55.37890625 C56.24925164 56.05348315 59.24804768 56.96494926 62.3125 57.9375 C67.18212803 59.45925876 72.03476374 60.83170911 77 62 C77 62.33 77 62.66 77 63 C75.9275 62.979375 74.855 62.95875 73.75 62.9375 C70.26806318 62.80433731 70.26806318 62.80433731 68.16015625 63.625 C58.10104707 65.3712468 42.24980371 54.59818007 34.21875 49.09375 C31.708774 47.15566726 29.34703153 45.13227047 27 43 C26.10796875 42.20078125 25.2159375 41.4015625 24.296875 40.578125 C13.20081921 30.10196059 4.92026742 17.48078705 0 3 C0 2.01 0 1.02 0 0 Z " fill="#893B57" transform="translate(24,140)"/>
<path d="M0 0 C3.7952131 1.49097658 5.61042731 3.75700849 8 7 C7.01 7 6.02 7 5 7 C4.76410156 7.680625 4.52820313 8.36125 4.28515625 9.0625 C2.42679583 13.31018095 -0.20599766 17.01301065 -2.81054688 20.828125 C-5.04722483 24.19595433 -6.5629264 26.95131819 -7 31 C-8.14926266 30.04578192 -9.29430541 29.08647955 -10.4375 28.125 C-11.07558594 27.59132813 -11.71367187 27.05765625 -12.37109375 26.5078125 C-14 25 -14 25 -15 23 C-13.68 23 -12.36 23 -11 23 C-10.22757731 21.16299211 -10.22757731 21.16299211 -10 19 C-11.35444301 17.22809091 -11.35444301 17.22809091 -13 16 C-15.46800047 17.15173355 -17.04783565 18.04783565 -19 20 C-20.65 18.02 -22.3 16.04 -24 14 C-23.01773438 13.76152344 -22.03546875 13.52304687 -21.0234375 13.27734375 C-16.53517602 11.99191471 -12.66460415 9.86499997 -8.625 7.5625 C-7.54025391 6.96985352 -7.54025391 6.96985352 -6.43359375 6.36523438 C-5.74652344 5.97787109 -5.05945313 5.59050781 -4.3515625 5.19140625 C-3.42077881 4.66848999 -3.42077881 4.66848999 -2.47119141 4.13500977 C-0.68063866 2.97185852 -0.68063866 2.97185852 0 0 Z " fill="#F4F4F8" transform="translate(172,47)"/>
<path d="M0 0 C3.4384986 0.23311855 5.59799993 0.83765711 8.6875 2.25 C9.3475 2.25 10.0075 2.25 10.6875 2.25 C10.3575 4.89 10.0275 7.53 9.6875 10.25 C8.3675 10.58 7.0475 10.91 5.6875 11.25 C5.3575 9.27 5.0275 7.29 4.6875 5.25 C2.7075 5.25 0.7275 5.25 -1.3125 5.25 C-1.3125 6.9 -1.3125 8.55 -1.3125 10.25 C-0.57 10.4975 0.1725 10.745 0.9375 11 C4.04817153 12.4139416 5.66933429 13.4843655 7.6875 16.25 C8.32089504 21.22667533 7.74133902 24.25651821 4.6875 28.25 C1.65717558 29.76516221 -0.96364962 29.42028053 -4.3125 29.25 C-7.125 28.25 -7.125 28.25 -9.3125 27.25 C-9.9725 27.25 -10.6325 27.25 -11.3125 27.25 C-10.4375 20.5 -10.4375 20.5 -9.3125 18.25 C-8.3225 18.25 -7.3325 18.25 -6.3125 18.25 C-5.3225 20.23 -4.3325 22.21 -3.3125 24.25 C-1.9925 24.25 -0.6725 24.25 0.6875 24.25 C0.72002936 21.95808151 0.72002936 21.95808151 -0.3125 19.25 C-1.91520573 17.74100885 -1.91520573 17.74100885 -3.8125 16.3125 C-6.44423818 14.20061134 -7.23487056 13.46132459 -8.4375 10.1875 C-8.20852226 4.80652306 -5.53212557 0.41751891 0 0 Z " fill="#F4F4F8" transform="translate(128.3125,24.75)"/>
<path d="M0 0 C7.26 0.66 14.52 1.32 22 2 C22 2.33 22 2.66 22 3 C21.04738281 3.01417969 20.09476563 3.02835938 19.11328125 3.04296875 C11.46177551 3.14505103 11.46177551 3.14505103 4.75 6.3125 C0.52804769 12.79621248 0.0596635 18.27580731 1 26 C2.6790052 29.75347856 5.11934785 31.56945895 8.8125 33.375 C9.534375 33.58125 10.25625 33.7875 11 34 C11 34.33 11 34.66 11 35 C2.07240354 35.75621994 -7.92001498 34.03999251 -16 30 C-15.505 28.515 -15.505 28.515 -15 27 C-13.02 27.66 -11.04 28.32 -9 29 C-8.95875 27.824375 -8.9175 26.64875 -8.875 25.4375 C-8.01933814 17.43003756 -4.44158877 8.66238315 0 2 C0 1.34 0 0.68 0 0 Z " fill="#243C88" transform="translate(97,167)"/>
<path d="M0 0 C3.78786597 0.5260925 6.17152224 1.38103911 9 4 C9 4.66 9 5.32 9 6 C9.66 6 10.32 6 11 6 C11 6.66 11 7.32 11 8 C11.66 8 12.32 8 13 8 C14.56826812 10.07386807 15.9848709 12.12276411 17.375 14.3125 C17.98118164 15.26068604 17.98118164 15.26068604 18.59960938 16.22802734 C24.4788787 25.69250749 27.17868105 34.95867659 27.1875 46 C27.19974609 46.80695313 27.21199219 47.61390625 27.22460938 48.4453125 C27.22750977 49.61707031 27.22750977 49.61707031 27.23046875 50.8125 C27.23457764 51.52019531 27.23868652 52.22789063 27.24291992 52.95703125 C26.9621464 55.31835067 26.16578114 56.94392823 25 59 C25 57.02 25 55.04 25 53 C24.67 54.98 24.34 56.96 24 59 C23.67 59 23.34 59 23 59 C23.02320313 57.98421875 23.04640625 56.9684375 23.0703125 55.921875 C23.27202962 43.39401944 22.1360008 32.5760643 17 21 C16.32770247 19.33559673 15.65955335 17.66949442 15 16 C14.34 16 13.68 16 13 16 C12.67 17.32 12.34 18.64 12 20 C11.34 20 10.68 20 10 20 C9.67 20.99 9.34 21.98 9 23 C8.38125 21.7934375 8.38125 21.7934375 7.75 20.5625 C6.26547669 17.85890282 6.26547669 17.85890282 3.8125 17.1875 C2.9153125 17.0946875 2.9153125 17.0946875 2 17 C2 16.34 2 15.68 2 15 C2.99 15 3.98 15 5 15 C4.67 14.01 4.34 13.02 4 12 C6.475 12.99 6.475 12.99 9 14 C9 12.68 9 11.36 9 10 C7.0399719 8.36323743 7.0399719 8.36323743 5 7 C5 6.34 5 5.68 5 5 C4.360625 4.731875 3.72125 4.46375 3.0625 4.1875 C1 3 1 3 0 0 Z " fill="#A08757" transform="translate(144,65)"/>
<path d="M0 0 C6.875 3.75 6.875 3.75 8 6 C7.34 6.598125 6.68 7.19625 6 7.8125 C1.23166822 12.56712968 -3.86214373 18.5864312 -6 25 C-3.03 25.99 -0.06 26.98 3 28 C0.25 32.875 0.25 32.875 -2 34 C-4.33916131 32.38287572 -6.67121701 30.75694638 -9 29.125 C-9.66773438 28.66480469 -10.33546875 28.20460937 -11.0234375 27.73046875 C-12.71859351 26.53694054 -14.3637578 25.27309661 -16 24 C-16 23.34 -16 22.68 -16 22 C-15.39696045 21.74331543 -14.7939209 21.48663086 -14.17260742 21.22216797 C-11.7692977 19.87022186 -10.78259751 18.70510552 -9.23828125 16.4453125 C-8.75939453 15.74792969 -8.28050781 15.05054688 -7.78710938 14.33203125 C-7.30048828 13.60371094 -6.81386719 12.87539062 -6.3125 12.125 C-5.81427734 11.40441406 -5.31605469 10.68382812 -4.80273438 9.94140625 C-2.5548498 6.62905531 -0.79418442 3.97037174 0 0 Z " fill="#B2292F" transform="translate(73,156)"/>
<path d="M0 0 C5.96652354 1.57013777 10.82909025 4.75029782 16 8 C15.34 9.65 14.68 11.3 14 13 C12 13 12 13 9.875 11 C9.25625 10.34 8.6375 9.68 8 9 C7.690625 10.1446875 7.690625 10.1446875 7.375 11.3125 C5.77664734 15.59899123 3.63161286 19.36604629 1.33984375 23.31640625 C0.03568916 25.92851762 -0.57900317 28.12578708 -1 31 C-3.64 29.68 -6.28 28.36 -9 27 C-9 26.34 -9 25.68 -9 25 C-8.41734375 24.43539062 -7.8346875 23.87078125 -7.234375 23.2890625 C-4.56601557 20.55539358 -3.03195677 17.74853354 -1.25 14.375 C-0.32960937 12.65410156 -0.32960937 12.65410156 0.609375 10.8984375 C2.14419102 8.23526286 2.14419102 8.23526286 2 6 C0.35 5.67 -1.3 5.34 -3 5 C-2.01 3.35 -1.02 1.7 0 0 Z " fill="#F3F3F7" transform="translate(148,31)"/>
<path d="M0 0 C1.99954746 -0.04254356 4.00041636 -0.04080783 6 0 C7 1 7 1 7.33203125 3.63671875 C6.91257487 7.88556517 5.12252296 10.45163513 2.6875 13.8125 C1.76701933 15.13848388 0.84779577 16.46534112 -0.0703125 17.79296875 C-0.55145508 18.48052246 -1.03259766 19.16807617 -1.52832031 19.87646484 C-3.98126376 23.41589785 -6.34146791 27.01408671 -8.6875 30.625 C-9.14656738 31.33108398 -9.60563477 32.03716797 -10.07861328 32.76464844 C-14.08324835 38.99535984 -17.63768437 45.40159902 -21 52 C-21.66 52 -22.32 52 -23 52 C-22.36656642 49.12832766 -21.46416434 46.65794122 -20.1796875 44.015625 C-19.81222412 43.2522583 -19.44476074 42.4888916 -19.06616211 41.70239258 C-18.67307861 40.89310303 -18.27999512 40.08381348 -17.875 39.25 C-13.71240588 30.58372543 -9.78981737 21.83478325 -6 13 C-5 16 -5 16 -6 20 C-2.535 12.575 -2.535 12.575 1 5 C0.34 4.67 -0.32 4.34 -1 4 C-1.33 4.66 -1.66 5.32 -2 6 C-1.49396008 3.83125748 -1.00016187 2.00032373 0 0 Z " fill="#E6E7EF" transform="translate(190,106)"/>
<path d="M0 0 C0.99 0.495 0.99 0.495 2 1 C1.85546875 2.7578125 1.85546875 2.7578125 1 5 C-15.18692546 17.75333521 -35.20277569 23.2186136 -55.4375 23.0625 C-56.55060547 23.05798828 -57.66371094 23.05347656 -58.81054688 23.04882812 C-61.54042101 23.03711193 -64.27018174 23.02070699 -67 23 C-65.27896949 20.85380737 -64.36401178 20.06798867 -61.6184082 19.55517578 C-60.22368286 19.50079346 -60.22368286 19.50079346 -58.80078125 19.4453125 C-57.24605103 19.36385986 -57.24605103 19.36385986 -55.65991211 19.28076172 C-54.55526611 19.22936035 -53.45062012 19.17795898 -52.3125 19.125 C-32.78870116 17.85947846 -15.76465632 11.68654059 0 0 Z " fill="#893855" transform="translate(170,183)"/>
<path d="M0 0 C0.495 0.99 0.495 0.99 1 2 C-8.7862069 15.93793103 -8.7862069 15.93793103 -15.9375 19.4375 C-18.19574958 20.80559157 -18.19574958 20.80559157 -18.5234375 23.171875 C-18.78592506 25.45622623 -18.94700537 27.70196004 -19 30 C-19.66 28.68 -20.32 27.36 -21 26 C-22.11375 26.33 -23.2275 26.66 -24.375 27 C-28 28 -28 28 -30 28 C-29.360625 29.03125 -28.72125 30.0625 -28.0625 31.125 C-26.18288629 34.38609658 -25.36873469 37.22046944 -25 41 C-25.43570313 40.62488281 -25.87140625 40.24976563 -26.3203125 39.86328125 C-27.21363281 39.09564453 -27.21363281 39.09564453 -28.125 38.3125 C-28.75792969 37.76722656 -29.39085937 37.22195312 -30.04296875 36.66015625 C-31.81640213 35.1557467 -33.62132079 33.70207646 -35.4375 32.25 C-36.283125 31.5075 -37.12875 30.765 -38 30 C-38 29.34 -38 28.68 -38 28 C-37.15695313 27.73445313 -36.31390625 27.46890625 -35.4453125 27.1953125 C-34.34960938 26.84210938 -33.25390625 26.48890625 -32.125 26.125 C-31.03445312 25.77695313 -29.94390625 25.42890625 -28.8203125 25.0703125 C-25.70067476 23.88640566 -24.48855036 22.97710072 -23 20 C-22.34 20 -21.68 20 -21 20 C-21 19.34 -21 18.68 -21 18 C-19.390625 16.52734375 -19.390625 16.52734375 -17.25 14.9375 C-16.20585937 14.14666016 -16.20585937 14.14666016 -15.140625 13.33984375 C-13.04902334 12.03068432 -11.40999065 11.43966046 -9 11 C-8.938125 10.46375 -8.87625 9.9275 -8.8125 9.375 C-7.6193416 5.8873062 -5.49312007 3.67120008 -3 1 C-2.01 0.67 -1.02 0.34 0 0 Z " fill="#233D89" transform="translate(162,140)"/>
<path d="M0 0 C2.75 0.5625 2.75 0.5625 4.2265625 2.2421875 C5.59415128 4.32795139 6.81976944 6.24578293 7.75 8.5625 C7.42 9.5525 7.09 10.5425 6.75 11.5625 C5.265 8.5925 5.265 8.5925 3.75 5.5625 C3.42 6.2225 3.09 6.8825 2.75 7.5625 C3.65376622 9.83445628 3.65376622 9.83445628 5.05859375 12.3515625 C5.55810547 13.29257813 6.05761719 14.23359375 6.57226562 15.203125 C7.37180664 16.68039063 7.37180664 16.68039063 8.1875 18.1875 C8.98124023 19.67636719 8.98124023 19.67636719 9.79101562 21.1953125 C11.1036054 23.65494018 12.42351346 26.11034707 13.75 28.5625 C14.41 28.2325 15.07 27.9025 15.75 27.5625 C17.40189537 30.97626807 19.04544896 34.3939872 20.6875 37.8125 C21.15607422 38.78058594 21.62464844 39.74867188 22.10742188 40.74609375 C22.55537109 41.68066406 23.00332031 42.61523438 23.46484375 43.578125 C23.87855225 44.43696289 24.29226074 45.29580078 24.71850586 46.18066406 C25.64146077 48.31187071 26.27057857 50.29614413 26.75 52.5625 C25.76 52.5625 24.77 52.5625 23.75 52.5625 C23.399375 51.655 23.04875 50.7475 22.6875 49.8125 C16.99217434 36.7209822 8.1853655 24.91541422 0.35644531 13.05102539 C-4.28343754 5.86343786 -4.28343754 5.86343786 -4 3.3125 C-2.93847259 0.83560272 -2.67862355 0.66965589 0 0 Z " fill="#F0F1F5" transform="translate(35.25,105.4375)"/>
<path d="M0 0 C2.97 0.99 5.94 1.98 9 3 C8.68546875 3.59425781 8.3709375 4.18851563 8.046875 4.80078125 C3.94583383 12.74346039 -0.0284339 21.01301358 -1 30 C-4.73487777 29.5020163 -6.81237635 29.12508244 -10 27 C-10 26.34 -10 25.68 -10 25 C-9.34 24.67 -8.68 24.34 -8 24 C-7.0822037 22.16285292 -7.0822037 22.16285292 -6.30859375 19.921875 C-6.00373047 19.09042969 -5.69886719 18.25898438 -5.38476562 17.40234375 C-4.91586914 16.08943359 -4.91586914 16.08943359 -4.4375 14.75 C-3.96280273 13.46029297 -3.96280273 13.46029297 -3.47851562 12.14453125 C-2.0121826 8.10355405 -0.7714653 4.23861471 0 0 Z " fill="#B12930" transform="translate(89,166)"/>
<path d="M0 0 C0.33 0.66 0.66 1.32 1 2 C1.721875 1.62875 2.44375 1.2575 3.1875 0.875 C6.60988311 -0.18974141 7.88228073 0.39660152 11 2 C10.01 2.495 10.01 2.495 9 3 C9.020625 4.299375 9.04125 5.59875 9.0625 6.9375 C9.08399454 8.29165633 9.07148199 9.64756083 9 11 C8.67 11.33 8.34 11.66 8 12 C8 12.99 8 13.98 8 15 C8.66 15.33 9.32 15.66 10 16 C8.68 16 7.36 16 6 16 C6.33 17.65 6.66 19.3 7 21 C4.36 20.67 1.72 20.34 -1 20 C-1 19.01 -1 18.02 -1 17 C-2.65 17.33 -4.3 17.66 -6 18 C-5.01 16.02 -4.02 14.04 -3 12 C-1.35 12 0.3 12 2 12 C1.34 11.01 0.68 10.02 0 9 C-1.32 9.33 -2.64 9.66 -4 10 C-4.33 8.68 -4.66 7.36 -5 6 C-4.01 5.34 -3.02 4.68 -2 4 C-0.80767387 1.94996045 -0.80767387 1.94996045 0 0 Z " fill="#B32228" transform="translate(117,85)"/>
<path d="M0 0 C2.875 -0.125 2.875 -0.125 6 0 C8 2 8 2 8.265625 4.53125 C8.26046875 5.5109375 8.2553125 6.490625 8.25 7.5 C8.25515625 8.4796875 8.2603125 9.459375 8.265625 10.46875 C8 13 8 13 6 15 C5.01 14.01 4.02 13.02 3 12 C2.01 13.485 2.01 13.485 1 15 C0.67 14.01 0.34 13.02 0 12 C-0.66 11.67 -1.32 11.34 -2 11 C-2 10.01 -2 9.02 -2 8 C-2.66 8 -3.32 8 -4 8 C-2.66666667 5.33333333 -1.33333333 2.66666667 0 0 Z M-5 11 C-2.525 11.495 -2.525 11.495 0 12 C-1.32 13.32 -2.64 14.64 -4 16 C-4.33 14.35 -4.66 12.7 -5 11 Z " fill="#E0ACAC" transform="translate(127,89)"/>
<path d="M0 0 C0.66 0.66 1.32 1.32 2 2 C1.984375 4.4140625 1.984375 4.4140625 1 7 C-1.546875 8.8359375 -1.546875 8.8359375 -4.75 10.375 C-6.32007813 11.16003906 -6.32007813 11.16003906 -7.921875 11.9609375 C-11.19570742 13.06606367 -12.75191682 13.0225447 -16 12 C-16.33 10.68 -16.66 9.36 -17 8 C-11.39 5.36 -5.78 2.72 0 0 Z " fill="#263E89" transform="translate(188,74)"/>
<path d="M0 0 C1.99954746 -0.04254356 4.00041636 -0.04080783 6 0 C7 1 7 1 7.359375 3.57421875 C6.8705281 8.23420496 4.88115654 11.02466931 2.25 14.8125 C1.58484375 15.8324707 1.58484375 15.8324707 0.90625 16.87304688 C-2.44899876 21.8220388 -2.44899876 21.8220388 -5.16113281 22.69799805 C-5.76795898 22.79765869 -6.37478516 22.89731934 -7 23 C-5.65150163 18.64029169 -3.95092154 14.68658562 -1.875 10.625 C-1.33617187 9.56539062 -0.79734375 8.50578125 -0.2421875 7.4140625 C0.16773438 6.61742188 0.57765625 5.82078125 1 5 C0.34 4.67 -0.32 4.34 -1 4 C-1.33 4.66 -1.66 5.32 -2 6 C-1.49396008 3.83125748 -1.00016187 2.00032373 0 0 Z " fill="#F1F2F6" transform="translate(190,106)"/>
<path d="M0 0 C1.32 0.66 2.64 1.32 4 2 C4.22084624 8.09781001 4.01167675 13.21642935 2 19 C0.68 19 -0.64 19 -2 19 C-3.77714844 17.22285156 -3.21450494 14.71729002 -3.25 12.3125 C-3.22606774 7.29270864 -2.77346588 4.16019881 0 0 Z " fill="#2D3E86" transform="translate(107,175)"/>
<path d="M0 0 C1.8125 0.5 1.8125 0.5 4 2 C7.45285229 8.81563018 8.18150016 15.48819957 8.1875 23 C8.19974609 23.80695313 8.21199219 24.61390625 8.22460938 25.4453125 C8.22750977 26.61707031 8.22750977 26.61707031 8.23046875 27.8125 C8.23457764 28.52019531 8.23868652 29.22789063 8.24291992 29.95703125 C7.9621464 32.31835067 7.16578114 33.94392823 6 36 C6 34.02 6 32.04 6 30 C5.67 31.98 5.34 33.96 5 36 C4.67 36 4.34 36 4 36 C4.03480469 34.47632812 4.03480469 34.47632812 4.0703125 32.921875 C4.33935779 18.87291161 4.33935779 18.87291161 0.9296875 5.35546875 C0 3 0 3 0 0 Z " fill="#C29C51" transform="translate(163,88)"/>
<path d="M0 0 C1.21236328 0.01353516 1.21236328 0.01353516 2.44921875 0.02734375 C3.37154297 0.04474609 3.37154297 0.04474609 4.3125 0.0625 C3.6525 0.3925 2.9925 0.7225 2.3125 1.0625 C2.3125 1.7225 2.3125 2.3825 2.3125 3.0625 C-10.27188623 6.78464241 -22.68905859 6.37488552 -35.6875 6.0625 C-33.91211976 3.80698072 -32.9601337 3.11604937 -30.09960938 2.55419922 C-28.58077148 2.46162842 -28.58077148 2.46162842 -27.03125 2.3671875 C-25.92652344 2.29113281 -24.82179688 2.21507812 -23.68359375 2.13671875 C-22.52988281 2.07097656 -21.37617187 2.00523437 -20.1875 1.9375 C-17.90604796 1.79220082 -15.62478443 1.64390158 -13.34375 1.4921875 C-12.33119141 1.43272949 -11.31863281 1.37327148 -10.27539062 1.31201172 C-6.67190626 0.96458143 -3.67941555 -0.05332486 0 0 Z " fill="#96354B" transform="translate(138.6875,199.9375)"/>
<path d="M0 0 C0.33 0.66 0.66 1.32 1 2 C-3.96279403 9.0682218 -9.87685555 17.4162598 -18 21 C-20 20 -20 20 -21 18 C-19.75627811 17.01287122 -18.50472782 16.03560095 -17.25 15.0625 C-16.55390625 14.51722656 -15.8578125 13.97195312 -15.140625 13.41015625 C-13.03907872 12.02574346 -11.45678201 11.43713013 -9 11 C-8.9071875 10.195625 -8.9071875 10.195625 -8.8125 9.375 C-7.6193416 5.8873062 -5.49312007 3.67120008 -3 1 C-2.01 0.67 -1.02 0.34 0 0 Z " fill="#A18856" transform="translate(162,140)"/>
<path d="M0 0 C0.66 0 1.32 0 2 0 C2 5.28 2 10.56 2 16 C2.66 16 3.32 16 4 16 C4.5304408 18.26860837 5.04905434 20.53998489 5.5625 22.8125 C5.85253906 24.07707031 6.14257812 25.34164062 6.44140625 26.64453125 C7 30 7 30 6 33 C0.71333028 27.71333028 -0.0862129 21.19199314 -0.1953125 13.96484375 C-0.18227052 12.28894936 -0.15879807 10.61310431 -0.125 8.9375 C-0.11597656 8.07189453 -0.10695313 7.20628906 -0.09765625 6.31445312 C-0.07439723 4.20951221 -0.03854008 2.10471658 0 0 Z " fill="#83395C" transform="translate(20,108)"/>
<path d="M0 0 C15.32785819 -0.58268521 27.69099302 0.60879146 41 9 C40.67 9.99 40.34 10.98 40 12 C36.21283842 10.49637741 32.44754813 8.94512999 28.6875 7.375 C27.61886719 6.92898437 26.55023438 6.48296875 25.44921875 6.0234375 C24.23685547 5.51683594 24.23685547 5.51683594 23 5 C23 4.34 23 3.68 23 3 C18.26120232 1.85149303 13.53708638 1.67098443 8.6875 1.4375 C7.85154297 1.39431641 7.01558594 1.35113281 6.15429688 1.30664062 C4.10303065 1.20114693 2.0515352 1.10012685 0 1 C0 0.67 0 0.34 0 0 Z " fill="#BD9747" transform="translate(105,55)"/>
<path d="M0 0 C1 3 1 3 0.4375 5.5 C-0.33822518 8.2399734 -0.33822518 8.2399734 2 11 C2.125 13.6875 2.125 13.6875 2 16 C1.01 16.33 0.02 16.66 -1 17 C-1 16.01 -1 15.02 -1 14 C-1.66 13.67 -2.32 13.34 -3 13 C-3 12.01 -3 11.02 -3 10 C-3.99 9.67 -4.98 9.34 -6 9 C-7.6875 6.9375 -7.6875 6.9375 -9 5 C-3.85714286 0.57142857 -3.85714286 0.57142857 0 0 Z " fill="#B62E32" transform="translate(103,84)"/>
<path d="M0 0 C1.35448242 0.05994141 1.35448242 0.05994141 2.73632812 0.12109375 C8.25696178 0.41691337 13.24590555 1.23274965 18.5625 2.75 C15.79448158 3.53621938 13.38127331 3.86109976 10.5078125 3.8125 C9.7341333 3.80412109 8.9604541 3.79574219 8.16333008 3.78710938 C7.34630615 3.77486328 6.52928223 3.76261719 5.6875 3.75 C-2.41115018 3.68150589 -10.36744227 4.01276797 -18.4375 4.75 C-18.1075 3.76 -17.7775 2.77 -17.4375 1.75 C-11.61364119 -0.65771613 -6.20581399 -0.3793177 0 0 Z " fill="#8C7D65" transform="translate(112.4375,55.25)"/>
<path d="M0 0 C0.99 0 1.98 0 3 0 C3.15855469 0.60585937 3.31710938 1.21171875 3.48046875 1.8359375 C5.078908 7.57618896 7.16337725 12.63653106 10.01171875 17.87109375 C11 20 11 20 11 23 C10.01 23 9.02 23 8 23 C0.14806378 8.58769932 0.14806378 8.58769932 0 0 Z " fill="#B08F4F" transform="translate(58,121)"/>
<path d="M0 0 C2.50037734 2.17424117 3.43628586 3.73045798 4 7 C4.66 7 5.32 7 6 7 C7.01180498 9.05673453 8.00901477 11.12065348 9 13.1875 C9.556875 14.33605469 10.11375 15.48460938 10.6875 16.66796875 C11.91763675 19.79090519 12.29804612 21.70286482 12 25 C8.1543506 21.4815804 6.14973148 17.06220137 3.75 12.5 C3.27820312 11.63246094 2.80640625 10.76492187 2.3203125 9.87109375 C1.87945312 9.03707031 1.43859375 8.20304687 0.984375 7.34375 C0.57928711 6.58255859 0.17419922 5.82136719 -0.24316406 5.03710938 C-1 3 -1 3 0 0 Z " fill="#5E6CA7" transform="translate(38,110)"/>
<path d="M0 0 C3.39961798 2.72379031 4.68677722 6.44417767 6.25 10.375 C6.53101563 11.035 6.81203125 11.695 7.1015625 12.375 C8.72250621 16.40328586 9.15323313 18.84137143 8 23 C8.08600725 25.44630271 8.08600725 25.44630271 8.4375 27.8125 C8.53933594 28.60269531 8.64117187 29.39289063 8.74609375 30.20703125 C8.82988281 30.79871094 8.91367188 31.39039062 9 32 C6.55199124 28.32798686 5.55078304 24.76419546 4.3125 20.5625 C4.07466797 19.79873047 3.83683594 19.03496094 3.59179688 18.24804688 C3.37201172 17.50748047 3.15222656 16.76691406 2.92578125 16.00390625 C2.62281128 14.99565796 2.62281128 14.99565796 2.3137207 13.96704102 C2 12 2 12 2.53198242 9.94506836 C3.28908312 6.79857838 1.48773441 4.73743131 0 2 C0 1.34 0 0.68 0 0 Z " fill="#9A3A4F" transform="translate(196,66)"/>
<path d="M0 0 C2 1 2 1 3 3 C-7.31754998 8.13385337 -16.53043616 9.35472878 -28 9 C-28 8.67 -28 8.34 -28 8 C-26.87851563 7.94392578 -26.87851563 7.94392578 -25.734375 7.88671875 C-24.74953125 7.82097656 -23.7646875 7.75523437 -22.75 7.6875 C-21.77546875 7.62949219 -20.8009375 7.57148438 -19.796875 7.51171875 C-16.66947025 6.93952598 -15.46445011 5.92806979 -13 4 C-10.2734375 3.0859375 -10.2734375 3.0859375 -7.375 2.375 C-3.58488321 1.46370464 -3.58488321 1.46370464 0 0 Z " fill="#D2A446" transform="translate(137,160)"/>
<path d="M0 0 C0.33 0 0.66 0 1 0 C1 6.60286082 -0.82758984 11.26494337 -3.875 17 C-4.22691406 17.6710376 -4.57882813 18.3420752 -4.94140625 19.03344727 C-7.61065369 23.8702179 -7.61065369 23.8702179 -11 25 C-9.024 16.032 -9.024 16.032 -6 12 C-5.34 12 -4.68 12 -4 12 C-3.79503906 11.30132812 -3.59007812 10.60265625 -3.37890625 9.8828125 C-3.10949219 8.97273437 -2.84007812 8.06265625 -2.5625 7.125 C-2.29566406 6.22007812 -2.02882812 5.31515625 -1.75390625 4.3828125 C-1 2 -1 2 0 0 Z " fill="#7A3C5F" transform="translate(202,139)"/>
<path d="M0 0 C3 1 3 1 4.25 2.75 C5.17574966 5.52724898 4.77341204 7.21571665 4 10 C5.32 9.67 6.64 9.34 8 9 C8 9.66 8 10.32 8 11 C10.97 11 13.94 11 17 11 C17 11.33 17 11.66 17 12 C14.41638482 12.05407567 11.83390745 12.093707 9.25 12.125 C8.52039063 12.14175781 7.79078125 12.15851562 7.0390625 12.17578125 C3.1955376 12.21072239 0.25393228 12.17499684 -3 10 C-1.35 10 0.3 10 2 10 C1.34 9.01 0.68 8.02 0 7 C-0.07905064 4.66800612 -0.08798769 2.33167378 0 0 Z " fill="#1B3686" transform="translate(102,43)"/>
<path d="M0 0 C3.18520458 3.76615385 5.06794339 8.06188153 7.125 12.5 C7.48464844 13.25925781 7.84429687 14.01851562 8.21484375 14.80078125 C9.79894848 18.18851084 11.1822479 21.33696065 12 25 C11.01 25 10.02 25 9 25 C8.38125 23.4840625 8.38125 23.4840625 7.75 21.9375 C6.64227786 19.33017288 5.45824035 17.0857806 4 14.625 C1.68969178 10.69123196 -0.02698717 6.46494673 -1 2 C-0.67 1.34 -0.34 0.68 0 0 Z " fill="#CDD0DF" transform="translate(50,133)"/>
<path d="M0 0 C2 3.75 2 3.75 2 6 C2.99 6 3.98 6 5 6 C4.375 8.4375 4.375 8.4375 3 11 C-0.125 11.8125 -0.125 11.8125 -3 12 C-2.67 11.01 -2.34 10.02 -2 9 C-2.66 9 -3.32 9 -4 9 C-4 8.34 -4 7.68 -4 7 C-4.66 6.67 -5.32 6.34 -6 6 C-4 4 -2 2 0 0 Z " fill="#99A2C5" transform="translate(78,77)"/>
<path d="M0 0 C2.475 0.99 2.475 0.99 5 2 C5 1.34 5 0.68 5 0 C6.9375 0.3125 6.9375 0.3125 9 1 C10 4 10 4 9.0625 6.1875 C8.711875 6.785625 8.36125 7.38375 8 8 C7.34 8 6.68 8 6 8 C5.67 8.99 5.34 9.98 5 11 C4.5875 10.195625 4.175 9.39125 3.75 8.5625 C2.26547669 5.85890282 2.26547669 5.85890282 -0.1875 5.1875 C-0.785625 5.125625 -1.38375 5.06375 -2 5 C-2 4.34 -2 3.68 -2 3 C-1.01 3 -0.02 3 1 3 C0.67 2.01 0.34 1.02 0 0 Z " fill="#A8AFCD" transform="translate(148,77)"/>
<path d="M0 0 C0.66 0 1.32 0 2 0 C3.125 3.75 3.125 3.75 2 6 C1.01 6.33 0.02 6.66 -1 7 C-1.66 7.66 -2.32 8.32 -3 9 C-5.625 8.625 -5.625 8.625 -8 8 C-8.33 6.02 -8.66 4.04 -9 2 C-8.01 1.67 -7.02 1.34 -6 1 C-6 1.66 -6 2.32 -6 3 C-2.75016865 1.91215032 -2.75016865 1.91215032 0 0 Z " fill="#B31F25" transform="translate(103,108)"/>
<path d="M0 0 C0.66 0 1.32 0 2 0 C2 0.99 2 1.98 2 3 C2.8971875 2.690625 2.8971875 2.690625 3.8125 2.375 C6 2 6 2 9 4 C11.28648848 4.24107326 11.28648848 4.24107326 13.6875 4.125 C14.49574219 4.10695313 15.30398437 4.08890625 16.13671875 4.0703125 C16.75160156 4.04710937 17.36648437 4.02390625 18 4 C17.67 5.32 17.34 6.64 17 8 C9.74 7.01 2.48 6.02 -5 5 C-5 4.34 -5 3.68 -5 3 C-3.02 3 -1.04 3 1 3 C0.67 2.01 0.34 1.02 0 0 Z " fill="#143284" transform="translate(115,49)"/>
<path d="M0 0 C1.5 1.375 1.5 1.375 3 3 C3 3.66 3 4.32 3 5 C4.65 5.33 6.3 5.66 8 6 C6.68 6.33 5.36 6.66 4 7 C4 7.66 4 8.32 4 9 C4.66 9 5.32 9 6 9 C5.67 9.66 5.34 10.32 5 11 C4.67 11 4.34 11 4 11 C3.67 11.66 3.34 12.32 3 13 C1.125 12.375 1.125 12.375 -1 11 C-2.25 7.875 -2.25 7.875 -3 5 C-2.505 4.54625 -2.01 4.0925 -1.5 3.625 C0.22609337 2.12364481 0.22609337 2.12364481 0 0 Z " fill="#A3AAC9" transform="translate(74,136)"/>
<path d="M0 0 C1.125 3.75 1.125 3.75 0 6 C-3.55780196 5.39009109 -6.6828589 4.4216319 -10 3 C-9.625 1.0625 -9.625 1.0625 -9 -1 C-5.79937313 -2.60031344 -3.27728194 -1.03173691 0 0 Z " fill="#273F8A" transform="translate(47,76)"/>
<path d="M0 0 C2.14576637 -0.02685938 4.29162645 -0.04633088 6.4375 -0.0625 C7.63246094 -0.07410156 8.82742187 -0.08570313 10.05859375 -0.09765625 C13 0 13 0 14 1 C15.48638992 1.15655027 16.97949127 1.25066943 18.47265625 1.31640625 C19.82133789 1.37924805 19.82133789 1.37924805 21.19726562 1.44335938 C22.61555664 1.50233398 22.61555664 1.50233398 24.0625 1.5625 C25.01189453 1.60568359 25.96128906 1.64886719 26.93945312 1.69335938 C29.29281353 1.79979276 31.64628354 1.90181008 34 2 C34 2.33 34 2.66 34 3 C29.79245079 3.22682931 25.58405176 3.42818993 21.375 3.625 C20.18519531 3.68945312 18.99539062 3.75390625 17.76953125 3.8203125 C16.03896484 3.89765625 16.03896484 3.89765625 14.2734375 3.9765625 C12.68668213 4.05511475 12.68668213 4.05511475 11.06787109 4.13525391 C6.64167379 3.94011517 3.17390241 3.17390241 0 0 Z " fill="#5D4376" transform="translate(92,202)"/>
<path d="M0 0 C0 0.99 0 1.98 0 3 C3.465 2.505 3.465 2.505 7 2 C7.33 2.66 7.66 3.32 8 4 C7.67 4.99 7.34 5.98 7 7 C6.29875 6.79375 5.5975 6.5875 4.875 6.375 C1.39813928 5.92149643 -0.77398123 6.72459723 -4 8 C-3.67 6.02 -3.34 4.04 -3 2 C-3.66 1.67 -4.32 1.34 -5 1 C-2 0 -2 0 0 0 Z " fill="#B21F26" transform="translate(114,104)"/>
<path d="M0 0 C-2 3 -2 3 -5.37109375 3.984375 C-6.72405151 4.25257664 -8.0797334 4.50731359 -9.4375 4.75 C-10.11876953 4.88792969 -10.80003906 5.02585937 -11.50195312 5.16796875 C-14.8027334 5.79514933 -16.76268084 6.07910639 -20 5 C-19.34 5 -18.68 5 -18 5 C-18 4.34 -18 3.68 -18 3 C-11.75690073 0.22528921 -6.80203375 -0.37634203 0 0 Z " fill="#7A4266" transform="translate(98,20)"/>
<path d="M0 0 C-0.33 0.66 -0.66 1.32 -1 2 C-0.34 2.66 0.32 3.32 1 4 C-5.71539173 2.70024676 -11.72019113 0.70071112 -18 -2 C-12.21328027 -5.44631309 -5.93802668 -2.07830934 0 0 Z " fill="#873E5C" transform="translate(148,23)"/>
<path d="M0 0 C2 3 2 3 1.67626953 4.90112305 C1.41442871 5.59761963 1.15258789 6.29411621 0.8828125 7.01171875 C0.46708984 8.14770508 0.46708984 8.14770508 0.04296875 9.30664062 C-0.25996094 10.09232422 -0.56289063 10.87800781 -0.875 11.6875 C-1.17019531 12.48478516 -1.46539063 13.28207031 -1.76953125 14.10351562 C-2.50091958 16.07354548 -3.24890699 18.0373982 -4 20 C-4.66 19.67 -5.32 19.34 -6 19 C-6 16.69 -6 14.38 -6 12 C-5.34 12 -4.68 12 -4 12 C-3.896875 11.319375 -3.79375 10.63875 -3.6875 9.9375 C-2.85274981 6.37084011 -1.50527246 3.33777806 0 0 Z " fill="#773D62" transform="translate(29,72)"/>
<path d="M0 0 C-2.75924692 2.75924692 -5.87058017 3.56721389 -9.4921875 4.90234375 C-11.99272283 5.99681482 -13.89269776 7.27985329 -16 9 C-16.66 8.67 -17.32 8.34 -18 8 C-17.7890625 6.17578125 -17.7890625 6.17578125 -17 4 C-11.54877337 -0.06231257 -6.55983615 -1.85386674 0 0 Z " fill="#B29351" transform="translate(100,59)"/>
<path d="M0 0 C4.71491925 2.42889779 8.71682013 5.83689008 12 10 C12 10.99 12 11.98 12 13 C7.31887614 12.13875427 4.87339803 9.67625924 2 6 C0.625 2.625 0.625 2.625 0 0 Z " fill="#7D3758" transform="translate(41,169)"/>
<path d="M0 0 C0.66 0.99 1.32 1.98 2 3 C1.10962482 6.8852735 0.07201955 9.43998371 -3 12 C-5.09782787 14.09782787 -5.6509396 15.3799207 -6.625 18.125 C-6.88539062 18.84945312 -7.14578125 19.57390625 -7.4140625 20.3203125 C-7.60742188 20.87460938 -7.80078125 21.42890625 -8 22 C-8.7989184 19.68015124 -9.11520842 18.38063411 -8.39501953 16.0012207 C-8.06099121 15.31632568 -7.72696289 14.63143066 -7.3828125 13.92578125 C-7.02316406 13.17619141 -6.66351562 12.42660156 -6.29296875 11.65429688 C-5.90753906 10.88150391 -5.52210937 10.10871094 -5.125 9.3125 C-4.55845703 8.1359082 -4.55845703 8.1359082 -3.98046875 6.93554688 C-1.18928571 1.18928571 -1.18928571 1.18928571 0 0 Z " fill="#9C394D" transform="translate(33,62)"/>
<path d="M0 0 C1.2684375 0.12375 1.2684375 0.12375 2.5625 0.25 C4.5625 3.25 4.5625 3.25 4.1875 5.9375 C3.98125 6.700625 3.775 7.46375 3.5625 8.25 C2.5725 8.58 1.5825 8.91 0.5625 9.25 C-0.7575 6.61 -2.0775 3.97 -3.4375 1.25 C-2.4375 0.25 -2.4375 0.25 0 0 Z " fill="#223B89" transform="translate(75.4375,37.75)"/>
<path d="M0 0 C12.87 0.495 12.87 0.495 26 1 C26 1.33 26 1.66 26 2 C23.41765641 2.36332974 20.83460218 2.71594867 18.25 3.0625 C17.52039063 3.16626953 16.79078125 3.27003906 16.0390625 3.37695312 C9.7971188 4.19975479 5.88054896 3.0047326 0 1 C0 0.67 0 0.34 0 0 Z " fill="#7F726D" transform="translate(99,165)"/>
<path d="M0 0 C1.62490954 -0.02698189 3.24994633 -0.04638757 4.875 -0.0625 C5.77992187 -0.07410156 6.68484375 -0.08570313 7.6171875 -0.09765625 C10 0 10 0 12 1 C11.67 1.99 11.34 2.98 11 4 C6.95637513 5.8380113 4.26550147 6.25455926 0 5 C0.33 4.34 0.66 3.68 1 3 C0.67 2.01 0.34 1.02 0 0 Z " fill="#B32128" transform="translate(96,132)"/>
<path d="M0 0 C5.93594592 2.37437837 7.57616616 7.50253856 10 13 C9.34 13.66 8.68 14.32 8 15 C7.67 13.68 7.34 12.36 7 11 C6.34 11 5.68 11 5 11 C3.7109375 9.35546875 3.7109375 9.35546875 2.375 7.1875 C1.92898437 6.47980469 1.48296875 5.77210937 1.0234375 5.04296875 C0 3 0 3 0 0 Z " fill="#A48955" transform="translate(157,77)"/>
<path d="M0 0 C2.4375 0.75 2.4375 0.75 5 2 C5.8125 4.125 5.8125 4.125 6 6 C6.66 6 7.32 6 8 6 C8.66 7.65 9.32 9.3 10 11 C6.77788109 10.41861767 5.06332259 9.49498087 2.75 7.1875 C2.22921875 6.68605469 1.7084375 6.18460938 1.171875 5.66796875 C0 4 0 4 0 0 Z " fill="#A28B5D" transform="translate(68,143)"/>
<path d="M0 0 C0.99 0 1.98 0 3 0 C2.50683684 4.93163163 1.70216003 8.79663996 -1 13 C-3.1875 13.875 -3.1875 13.875 -5 14 C-3.46527032 9.27775484 -1.76054874 4.64144669 0 0 Z " fill="#B7954D" transform="translate(166,125)"/>
<path d="M0 0 C4.04420651 1.77945087 7.46078487 4.39529673 11 7 C10.67 7.99 10.34 8.98 10 10 C5.57299578 8.60865582 3.00586708 6.52115858 0 3 C0 2.01 0 1.02 0 0 Z " fill="#B89752" transform="translate(76,151)"/>
<path d="M0 0 C0.99 0 1.98 0 3 0 C3 0.99 3 1.98 3 3 C3.99 3 4.98 3 6 3 C6 4.65 6 6.3 6 8 C5.01 8 4.02 8 3 8 C3 7.34 3 6.68 3 6 C1.68 6 0.36 6 -1 6 C-1 5.01 -1 4.02 -1 3 C-1.66 3 -2.32 3 -3 3 C-2.67 2.34 -2.34 1.68 -2 1 C-1.34 1.33 -0.68 1.66 0 2 C0 1.34 0 0.68 0 0 Z " fill="#F6E9E9" transform="translate(122,127)"/>
<path d="M0 0 C0.66 0.33 1.32 0.66 2 1 C1.61479436 3.53910197 1.29902057 4.72751123 -0.62890625 6.484375 C-1.26699219 6.90203125 -1.90507812 7.3196875 -2.5625 7.75 C-3.20316406 8.17796875 -3.84382812 8.6059375 -4.50390625 9.046875 C-5.24447266 9.51867187 -5.24447266 9.51867187 -6 10 C-8 9 -8 9 -9 7 C-8.43410156 6.57847656 -7.86820313 6.15695313 -7.28515625 5.72265625 C-6.55167969 5.17480469 -5.81820312 4.62695312 -5.0625 4.0625 C-4.33160156 3.51722656 -3.60070312 2.97195312 -2.84765625 2.41015625 C-1.0865547 1.13092062 -1.0865547 1.13092062 0 0 Z " fill="#A88A50" transform="translate(150,151)"/>
<path d="M0 0 C0.33 0.66 0.66 1.32 1 2 C1.721875 1.62875 2.44375 1.2575 3.1875 0.875 C6.60988311 -0.18974141 7.88228073 0.39660152 11 2 C10.01 2.495 10.01 2.495 9 3 C8.67 3.99 8.34 4.98 8 6 C5.03 5.67 2.06 5.34 -1 5 C-0.67 3.35 -0.34 1.7 0 0 Z " fill="#CA6D6D" transform="translate(117,85)"/>
<path d="M0 0 C1.32 0.33 2.64 0.66 4 1 C0.7 4.3 -2.6 7.6 -6 11 C-6.33 9.68 -6.66 8.36 -7 7 C-5.70703125 5.04296875 -5.70703125 5.04296875 -3.8125 3.1875 C-3.20019531 2.56230469 -2.58789062 1.93710937 -1.95703125 1.29296875 C-1.31121094 0.86628906 -0.66539063 0.43960938 0 0 Z " fill="#79496E" transform="translate(50,41)"/>
<path d="M0 0 C-0.99 0.5259375 -0.99 0.5259375 -2 1.0625 C-4.41103961 2.96557142 -4.41103961 2.96557142 -4.25 6.6875 C-4.1675 7.780625 -4.085 8.87375 -4 10 C-4.99 10.495 -4.99 10.495 -6 11 C-6 10.01 -6 9.02 -6 8 C-6.66 7.67 -7.32 7.34 -8 7 C-7.34 7 -6.68 7 -6 7 C-6.34786708 5.02463255 -6.34786708 5.02463255 -7 3 C-7.66 2.67 -8.32 2.34 -9 2 C-9 1.01 -9 0.02 -9 -1 C-5.79937313 -2.60031344 -3.27728194 -1.03173691 0 0 Z " fill="#CD797B" transform="translate(123,111)"/>
<path d="M0 0 C0.99 0.33 1.98 0.66 3 1 C1.02 1.99 1.02 1.99 -1 3 C0.98 2.67 2.96 2.34 5 2 C5 3.32 5 4.64 5 6 C3.35 5.67 1.7 5.34 0 5 C-0.66 6.32 -1.32 7.64 -2 9 C-2 8.01 -2 7.02 -2 6 C-2.99 6.33 -3.98 6.66 -5 7 C-3.75023244 3.34683329 -3.32901247 2.21934164 0 0 Z " fill="#8590B9" transform="translate(151,138)"/>
<path d="M0 0 C2 1 2 1 2.6875 2.6875 C3.08443325 5.62480602 2.59080963 8.11159734 2 11 C1.34 9.68 0.68 8.36 0 7 C-1.32 7.33 -2.64 7.66 -4 8 C-3.40138258 5.64828869 -2.73075648 3.3140622 -2 1 C-1.34 0.67 -0.68 0.34 0 0 Z " fill="#4D4D7D" transform="translate(141,159)"/>
<path d="M0 0 C4.10958767 1.45044271 7.43258745 3.51110752 11 6 C10.67 6.99 10.34 7.98 10 9 C4.98709528 7.56774151 3.01961382 5.05490999 0 1 C0 0.67 0 0.34 0 0 Z " fill="#823F5E" transform="translate(159,29)"/>
<path d="M0 0 C2.50037734 2.17424117 3.43628586 3.73045798 4 7 C4.66 7 5.32 7 6 7 C7.0625 8.8125 7.0625 8.8125 8 11 C7.67 11.99 7.34 12.98 7 14 C6.38125 13.1646875 6.38125 13.1646875 5.75 12.3125 C4.50717858 10.67020027 3.20886545 9.06925347 1.875 7.5 C0.14276311 5.19035081 -0.69602002 3.83714648 -1 1 C-0.67 0.67 -0.34 0.34 0 0 Z " fill="#5367A3" transform="translate(38,110)"/>
<path d="M0 0 C-1 2 -1 2 -2.9609375 2.8515625 C-4.15589844 3.23441406 -4.15589844 3.23441406 -5.375 3.625 C-6.56222656 4.01558594 -6.56222656 4.01558594 -7.7734375 4.4140625 C-10 5 -10 5 -13 5 C-12 2 -12 2 -10.4375 0.8125 C-6.88877617 -0.37040794 -3.73298379 -0.12443279 0 0 Z " fill="#173586" transform="translate(103,54)"/>
<path d="M0 0 C8.57142857 -0.28571429 8.57142857 -0.28571429 12 2 C11.67 2.33 11.34 2.66 11 3 C12.32 3.66 13.64 4.32 15 5 C4.44191344 4.03644647 4.44191344 4.03644647 0 3 C0 2.01 0 1.02 0 0 Z " fill="#A83341" transform="translate(122,18)"/>
<path d="M0 0 C0.66 0.99 1.32 1.98 2 3 C0.98819642 6.77126791 0.32378142 7.78414572 -3 10 C-3.99 10 -4.98 10 -6 10 C-4.34832443 6.4213696 -2.21713508 3.25179812 0 0 Z " fill="#9A394C" transform="translate(191,160)"/>
<path d="M0 0 C1.33855096 4.01565287 0.23071006 5.67187183 -1.3125 9.5625 C-1.76238281 10.71878906 -2.21226562 11.87507812 -2.67578125 13.06640625 C-4 16 -4 16 -6 18 C-5.55397709 11.30965634 -2.92654458 5.97187878 0 0 Z " fill="#A4ABCA" transform="translate(184,119)"/>
<path d="M0 0 C0.66 0.33 1.32 0.66 2 1 C1.67 1.66 1.34 2.32 1 3 C3.97 2.34 6.94 1.68 10 1 C10.33 2.32 10.66 3.64 11 5 C9.02 5.33 7.04 5.66 5 6 C5 5.34 5 4.68 5 4 C3.35 4 1.7 4 0 4 C0 2.68 0 1.36 0 0 Z " fill="#D69494" transform="translate(108,92)"/>
<path d="M0 0 C-1.11190476 3.33571429 -1.46320673 3.58417079 -4.375 5.1875 C-4.98085937 5.53167969 -5.58671875 5.87585938 -6.2109375 6.23046875 C-8 7 -8 7 -11 7 C-9.88809524 3.66428571 -9.53679327 3.41582921 -6.625 1.8125 C-6.01914063 1.46832031 -5.41328125 1.12414063 -4.7890625 0.76953125 C-3 0 -3 0 0 0 Z " fill="#1A3785" transform="translate(88,59)"/>
<path d="M0 0 C0 0.66 0 1.32 0 2 C2.97 2 5.94 2 9 2 C9 2.33 9 2.66 9 3 C6.41638482 3.05407567 3.83390745 3.093707 1.25 3.125 C0.52039063 3.14175781 -0.20921875 3.15851562 -0.9609375 3.17578125 C-4.8044624 3.21072239 -7.74606772 3.17499684 -11 1 C-7.26562152 0.12132271 -3.83225427 -0.08912219 0 0 Z " fill="#43538E" transform="translate(110,52)"/>
<path d="M0 0 C0.66 0.33 1.32 0.66 2 1 C1.8125 2.8125 1.8125 2.8125 1 5 C-1.5625 6.75 -1.5625 6.75 -4 8 C-4 7.34 -4 6.68 -4 6 C-5.32 6.33 -6.64 6.66 -8 7 C-5.4837822 4.39391727 -2.94865641 2.10618315 0 0 Z " fill="#97394E" transform="translate(170,183)"/>
<path d="M0 0 C0.33 0.99 0.66 1.98 1 3 C-0.43359375 5.04296875 -0.43359375 5.04296875 -2.4375 7.1875 C-3.09621094 7.90292969 -3.75492188 8.61835938 -4.43359375 9.35546875 C-5.20896484 10.16951172 -5.20896484 10.16951172 -6 11 C-6.99 10.67 -7.98 10.34 -9 10 C-6.03 6.7 -3.06 3.4 0 0 Z " fill="#6A3961" transform="translate(187,168)"/>
<path d="M0 0 C0.33 0.66 0.66 1.32 1 2 C-0.57914015 2.53341184 -2.16354387 3.05125763 -3.75 3.5625 C-4.63171875 3.85253906 -5.5134375 4.14257812 -6.421875 4.44140625 C-9.07834316 5.01697435 -10.47031106 4.89248371 -13 4 C-12.01 4 -11.02 4 -10 4 C-10 3.34 -10 2.68 -10 2 C-8.71211992 1.46987262 -7.41953322 0.9511671 -6.125 0.4375 C-5.40570313 0.14746094 -4.68640625 -0.14257812 -3.9453125 -0.44140625 C-2 -1 -2 -1 0 0 Z " fill="#9C845B" transform="translate(139,161)"/>
<path d="M0 0 C3.82053924 1.27351308 4.23021375 2.62637525 6.1875 6.0625 C6.71730469 6.98160156 7.24710938 7.90070313 7.79296875 8.84765625 C8.19128906 9.55792969 8.58960938 10.26820313 9 11 C8.01 11 7.02 11 6 11 C4.39453125 9.1015625 4.39453125 9.1015625 2.8125 6.625 C2.01779297 5.40683594 2.01779297 5.40683594 1.20703125 4.1640625 C0 2 0 2 0 0 Z " fill="#30458E" transform="translate(36,121)"/>
<path d="M0 0 C-1.47692308 4.67692308 -1.47692308 4.67692308 -4.125 6.3125 C-5.053125 6.6528125 -5.053125 6.6528125 -6 7 C-6.6875 5.1875 -6.6875 5.1875 -7 3 C-4.8243318 -0.20624788 -4.07796486 0 0 0 Z " fill="#C9C1B5" transform="translate(77,75)"/>
<path d="M0 0 C3 1 3 1 4.203125 3.21484375 C4.54859375 4.11332031 4.8940625 5.01179688 5.25 5.9375 C5.78367188 7.28134766 5.78367188 7.28134766 6.328125 8.65234375 C7 11 7 11 6 13 C3.57206296 10.83049884 2.3943719 8.99994161 1.3125 5.9375 C1.06113281 5.24527344 0.80976563 4.55304688 0.55078125 3.83984375 C0 2 0 2 0 0 Z " fill="#6C3E67" transform="translate(193,63)"/>
<path d="M0 0 C4.7641112 4.27548441 4.7641112 4.27548441 5.875 7.6875 C6 10 6 10 5 12 C0.99609375 7.60546875 0.99609375 7.60546875 0 6 C0.33 5.01 0.66 4.02 1 3 C0.67 2.01 0.34 1.02 0 0 Z " fill="#9F3849" transform="translate(37,162)"/>
<path d="M0 0 C0 0.66 0 1.32 0 2 C0.66 2 1.32 2 2 2 C3.625 4 3.625 4 5 6 C4.67 6.66 4.34 7.32 4 8 C2.25 7.875 2.25 7.875 0 7 C-2.25 3.9375 -2.25 3.9375 -4 1 C-2 0 -2 0 0 0 Z " fill="#B18E46" transform="translate(155,71)"/>
<path d="M0 0 C0.66 0.33 1.32 0.66 2 1 C1.39301257 5.12751449 -0.03810791 8.3321148 -2 12 C-3.24674659 8.25976024 -2.76679965 5.83399823 -2 2 C-1.34 1.34 -0.68 0.68 0 0 Z " fill="#2A418C" transform="translate(103,25)"/>
<path d="M0 0 C-2.51699845 2.51699845 -4.57554146 3.10964078 -8 4 C-10.375 3.625 -10.375 3.625 -12 3 C-7.8927971 -1.29389394 -5.8727074 -0.97878457 0 0 Z " fill="#8B3A55" transform="translate(84,25)"/>
<path d="M0 0 C4.10958767 1.45044271 7.43258745 3.51110752 11 6 C10.01 6.66 9.02 7.32 8 8 C5.3125 7.125 5.3125 7.125 3 6 C3.33 5.34 3.66 4.68 4 4 C2.68 2.68 1.36 1.36 0 0 Z " fill="#A23646" transform="translate(60,186)"/>
<path d="M0 0 C0.66 0 1.32 0 2 0 C3.625 2 3.625 2 5 4 C-1.75 7.875 -1.75 7.875 -4 9 C-3.6875 7.125 -3.6875 7.125 -3 5 C-2.01 4.34 -1.02 3.68 0 3 C0 2.01 0 1.02 0 0 Z " fill="#B31F24" transform="translate(106,97)"/>
<path d="M0 0 C1.32 0 2.64 0 4 0 C3.375 2.4375 3.375 2.4375 2 5 C-1.125 5.8125 -1.125 5.8125 -4 6 C-3.34 4.68 -2.68 3.36 -2 2 C-1.34 2 -0.68 2 0 2 C0 1.34 0 0.68 0 0 Z " fill="#A1A8CB" transform="translate(79,83)"/>
<path d="M0 0 C3.96 1.98 3.96 1.98 8 4 C7.34 5.32 6.68 6.64 6 8 C1.125 3.375 1.125 3.375 0 0 Z " fill="#2A418C" transform="translate(54,59)"/>
<path d="M0 0 C0.8125 1.6875 0.8125 1.6875 1 4 C-1.4375 6.75 -1.4375 6.75 -4 9 C-5 7 -5 7 -4.25 4.5 C-3 2 -3 2 0 0 Z " fill="#743C62" transform="translate(38,57)"/>
<path d="M0 0 C0 3 0 3 -2.5 5.6875 C-3.325 6.450625 -4.15 7.21375 -5 8 C-5.66 6.68 -6.32 5.36 -7 4 C-4.69 2.68 -2.38 1.36 0 0 Z " fill="#29408C" transform="translate(169,55)"/>
<path d="M0 0 C-2.25 2.5625 -2.25 2.5625 -5 5 C-7.3125 4.8125 -7.3125 4.8125 -9 4 C-6.56225426 0.2214941 -6.56225426 0.2214941 -3.9375 -0.8125 C-2 -1 -2 -1 0 0 Z " fill="#743D62" transform="translate(68,32)"/>
<path d="M0 0 C1.5 1.375 1.5 1.375 3 3 C3 3.66 3 4.32 3 5 C4.65 5.33 6.3 5.66 8 6 C4.98968256 6.93423645 4.13349732 7.04449911 1 6 C0.67 6.66 0.34 7.32 0 8 C-0.66 6.35 -1.32 4.7 -2 3 C-1.34 2.67 -0.68 2.34 0 2 C0 1.34 0 0.68 0 0 Z " fill="#7E87B6" transform="translate(74,136)"/>
<path d="M0 0 C0 3.34419152 -0.47519394 4.06840321 -2.375 6.6875 C-2.81585938 7.31011719 -3.25671875 7.93273437 -3.7109375 8.57421875 C-4.13632813 9.04472656 -4.56171875 9.51523438 -5 10 C-5.66 10 -6.32 10 -7 10 C-5.6062718 5.56541027 -3.39417765 3.12621626 0 0 Z " fill="#2E458D" transform="translate(183,135)"/>
<path d="M0 0 C1.98 0 3.96 0 6 0 C6 0.99 6 1.98 6 3 C7.65 2.67 9.3 2.34 11 2 C11 2.99 11 3.98 11 5 C8.69 5 6.38 5 4 5 C4 4.01 4 3.02 4 2 C2.68 2 1.36 2 0 2 C0 1.34 0 0.68 0 0 Z " fill="#D9A1A1" transform="translate(110,102)"/>
<path d="M0 0 C1.65 0 3.3 0 5 0 C5 0.66 5 1.32 5 2 C6.32 2.33 7.64 2.66 9 3 C8.071875 3.185625 8.071875 3.185625 7.125 3.375 C4.80879168 3.87197356 4.80879168 3.87197356 3 6 C3 5.34 3 4.68 3 4 C2.01 3.67 1.02 3.34 0 3 C0 2.01 0 1.02 0 0 Z " fill="#F4E6E6" transform="translate(108,96)"/>
<path d="M0 0 C0.66 0.66 1.32 1.32 2 2 C1.98252112 4.59269983 1.86231408 7.0525154 1.625 9.625 C1.56828125 10.33140625 1.5115625 11.0378125 1.453125 11.765625 C1.31159079 13.51121361 1.15702613 15.25573673 1 17 C0.67 17 0.34 17 0 17 C-1.33257403 5.47835991 -1.33257403 5.47835991 0 0 Z " fill="#6C4B78" transform="translate(21,90)"/>
<path d="M0 0 C-0.33 0.99 -0.66 1.98 -1 3 C-1.763125 2.979375 -2.52625 2.95875 -3.3125 2.9375 C-6.10185786 2.87057159 -6.10185786 2.87057159 -9 4 C-6.73455663 -1.01633889 -5.27613404 -1.24961069 0 0 Z " fill="#3C5093" transform="translate(39,104)"/>
<path d="M0 0 C1.65 0 3.3 0 5 0 C5.625 1.875 5.625 1.875 6 4 C5.34 4.66 4.68 5.32 4 6 C0 1.125 0 1.125 0 0 Z " fill="#BA393D" transform="translate(129,98)"/>
<path d="M0 0 C1.9375 0.3125 1.9375 0.3125 4 1 C4.33 1.99 4.66 2.98 5 4 C4.01 4.99 3.02 5.98 2 7 C0.4375 5.75 0.4375 5.75 -1 4 C-0.6875 1.8125 -0.6875 1.8125 0 0 Z " fill="#A3A8C1" transform="translate(153,77)"/>
<path d="M0 0 C0 4.38968456 -2.12805101 5.76905739 -5 9 C-5.33 7.68 -5.66 6.36 -6 5 C-4.02 3.35 -2.04 1.7 0 0 Z " fill="#857663" transform="translate(73,73)"/>
<path d="M0 0 C0.33 0.66 0.66 1.32 1 2 C3.52733235 2.65555119 3.52733235 2.65555119 6 3 C5.67 3.66 5.34 4.32 5 5 C2.6568787 4.74438677 0.32156597 4.40729228 -2 4 C-2.33 3.34 -2.66 2.68 -3 2 C-2.01 1.34 -1.02 0.68 0 0 Z " fill="#844161" transform="translate(85,198)"/>
<path d="M0 0 C0.99 0 1.98 0 3 0 C4.125 4.75 4.125 4.75 3 7 C2.34 7 1.68 7 1 7 C0.67 4.69 0.34 2.38 0 0 Z " fill="#F9F1F1" transform="translate(130,90)"/>
<path d="M0 0 C0.66 0 1.32 0 2 0 C1.01 2.97 0.02 5.94 -1 9 C-1.66 7.68 -2.32 6.36 -3 5 C-1.75 2.25 -1.75 2.25 0 0 Z " fill="#193686" transform="translate(60,87)"/>
<path d="M0 0 C-0.99 0.495 -0.99 0.495 -2 1 C-2.33 1.99 -2.66 2.98 -3 4 C-5.31 3.34 -7.62 2.68 -10 2 C-10 1.67 -10 1.34 -10 1 C-6.59437148 0.22157062 -3.49234244 -0.09978121 0 0 Z " fill="#DAA4A4" transform="translate(128,87)"/>
<path d="M0 0 C0 0.66 0 1.32 0 2 C-2.31 2.33 -4.62 2.66 -7 3 C-6.67 2.01 -6.34 1.02 -6 0 C-3 -1 -3 -1 0 0 Z " fill="#384185" transform="translate(134,199)"/>
<path d="M0 0 C0.66 0.33 1.32 0.66 2 1 C1.6875 2.9375 1.6875 2.9375 1 5 C0.01 5.33 -0.98 5.66 -2 6 C-2.66 5.34 -3.32 4.68 -4 4 C-2.68 2.68 -1.36 1.36 0 0 Z " fill="#BB974D" transform="translate(150,151)"/>
<path d="M0 0 C1.61949011 2.57213134 2.04408751 3.67669159 1.625 6.75 C1.41875 7.4925 1.2125 8.235 1 9 C0.01 8.67 -0.98 8.34 -2 8 C-1.67 7.01 -1.34 6.02 -1 5 C-0.65179959 3.33637583 -0.31595508 1.67004829 0 0 Z " fill="#994159" transform="translate(206,93)"/>
<path d="M0 0 C1.65 0.99 3.3 1.98 5 3 C4.67 4.32 4.34 5.64 4 7 C2 5.1875 2 5.1875 0 3 C0 2.01 0 1.02 0 0 Z " fill="#8E7B58" transform="translate(157,77)"/>
<path d="M0 0 C0.66 0.33 1.32 0.66 2 1 C1.67 2.32 1.34 3.64 1 5 C-0.65 5.33 -2.3 5.66 -4 6 C-2.68 4.02 -1.36 2.04 0 0 Z " fill="#863754" transform="translate(59,34)"/>
<path d="M0 0 C-1.6875 1.5625 -1.6875 1.5625 -4 3 C-6.75 2.6875 -6.75 2.6875 -9 2 C-9 1.34 -9 0.68 -9 0 C-5.67465243 -1.10844919 -3.37817425 -0.84454356 0 0 Z " fill="#2F458D" transform="translate(101,23)"/>
<path d="M0 0 C2.12508244 3.18762365 2.5020163 5.26512223 3 9 C1.68 8.01 0.36 7.02 -1 6 C-0.67 4.02 -0.34 2.04 0 0 Z " fill="#484482" transform="translate(134,172)"/>
<path d="M0 0 C3 1 3 1 5 4 C5 4.99 5 5.98 5 7 C4.01 7 3.02 7 2 7 C1.34 4.69 0.68 2.38 0 0 Z " fill="#F2F3F7" transform="translate(57,151)"/>
<path d="M0 0 C3 1 3 1 4.75 3.9375 C5.1625 4.948125 5.575 5.95875 6 7 C5.67 7.66 5.34 8.32 5 9 C4.16094435 7.87926138 3.32892169 6.75325453 2.5 5.625 C2.0359375 4.99851563 1.571875 4.37203125 1.09375 3.7265625 C0 2 0 2 0 0 Z " fill="#E6E7EF" transform="translate(46,133)"/>
<path d="M0 0 C2.97 0.33 5.94 0.66 9 1 C9 1.33 9 1.66 9 2 C7.02 2 5.04 2 3 2 C3 2.99 3 3.98 3 5 C2.01 4.67 1.02 4.34 0 4 C0 2.68 0 1.36 0 0 Z " fill="#CE7E7E" transform="translate(96,132)"/>
<path d="M0 0 C1.32 0 2.64 0 4 0 C3.67 1.65 3.34 3.3 3 5 C2.34 5 1.68 5 1 5 C1 4.01 1 3.02 1 2 C0.34 1.67 -0.32 1.34 -1 1 C-0.67 0.67 -0.34 0.34 0 0 Z " fill="#B0151C" transform="translate(101,96)"/>
<path d="M0 0 C2 1 2 1 3 3 C1.68 3.99 0.36 4.98 -1 6 C-1.66 5.67 -2.32 5.34 -3 5 C-2.625 3.0625 -2.625 3.0625 -2 1 C-1.34 0.67 -0.68 0.34 0 0 Z " fill="#CAA24B" transform="translate(85,62)"/>
</svg>
